<svg width="17" height="18" viewBox="0 0 17 18" fill="none" xmlns="http://www.w3.org/2000/svg">
<path d="M5.16097 14.0332C4.22122 14.0332 3.45703 14.7845 3.45703 15.7115C3.45703 16.6386 4.22122 17.3898 5.16097 17.3898C6.10072 17.3898 6.86491 16.6386 6.86491 15.7115C6.86491 14.7845 6.09727 14.0332 5.16097 14.0332Z" fill="#000"/>
<path d="M11.3636 14.0332C10.4239 14.0332 9.65967 14.7845 9.65967 15.7115C9.65967 16.6386 10.4239 17.3898 11.3636 17.3898C12.3034 17.3898 13.0675 16.6386 13.0675 15.7115C13.0675 14.7845 12.3034 14.0332 11.3636 14.0332Z" fill="#000"/>
<path d="M15.7802 3.08783H3.3501V2.49162C3.3501 1.80582 2.85785 1.23374 2.18316 1.13035L0.816572 0.920126C0.627245 0.892556 0.451688 1.02007 0.42415 1.20961C0.396612 1.39916 0.523977 1.57492 0.713303 1.60249L2.07645 1.81271C2.4138 1.8644 2.66164 2.15044 2.66164 2.49507V3.08783V3.77708V9.89076V10.58V11.2245C2.66164 12.1756 3.43272 12.9442 4.38279 12.9442H13.3706C13.5599 12.9442 13.7148 12.7891 13.7148 12.5995C13.7148 12.41 13.5599 12.2549 13.3706 12.2549H4.38279C3.81481 12.2549 3.3501 11.7931 3.3501 11.2245V10.5662H12.1004C12.8061 10.5662 13.4326 10.1492 13.6942 9.49789L16.1004 3.55652C16.1417 3.44969 16.1313 3.33251 16.0659 3.23602C16.004 3.14297 15.8973 3.08783 15.7802 3.08783Z" fill="#000"/>
</svg>
