<svg width="32" height="32" viewBox="0 0 32 32" fill="none" xmlns="http://www.w3.org/2000/svg">
<path d="M5.12656 27.354C2.09258 24.3194 2.30197 20.4846 5.68629 17.097L19.4192 3.40037C19.6916 3.12726 20.7048 2.21213 22.2475 1.94631C23.308 1.76328 24.886 1.85899 26.3805 3.35344C26.3825 3.35476 26.3828 3.35574 26.3841 3.35706C27.9131 4.88606 28.054 6.40712 27.9034 7.41404C27.6858 8.86179 26.7829 9.89699 26.405 10.2749L12.6139 24.0318C12.2252 24.4211 11.3119 25.3352 10.0491 25.3282C9.27733 25.324 8.54755 24.9829 7.87948 24.3148C7.87783 24.3132 7.87619 24.3115 7.87454 24.3099C6.61376 23.0491 6.79954 21.356 8.37273 19.7809L22.0965 6.04585L23.4136 7.3616L9.69011 21.0969C8.48963 22.2987 8.96004 22.7913 9.17231 23.0036C9.17527 23.0065 9.17659 23.0078 9.18053 23.0118C9.48791 23.3192 9.77646 23.4749 10.039 23.477C10.5339 23.4797 11.0495 22.9634 11.2978 22.7151L25.0893 8.9572C25.3389 8.70753 25.9355 8.02806 26.0719 7.11893C26.1991 6.27029 25.866 5.44237 25.0817 4.65812C25.0807 4.65713 25.0801 4.65648 25.0794 4.65582L25.0791 4.65549C24.334 3.9104 23.4942 3.61287 22.5816 3.77053C21.7775 3.90915 21.0842 4.36684 20.7349 4.71677L7.00172 18.4138C5.13069 20.2868 3.51112 23.1339 6.42795 26.052C9.28125 28.9046 12.1113 27.2726 13.9826 25.4012L25.8781 13.4497L27.1975 14.7632L15.3007 26.716C11.8655 30.1517 8.15757 30.3838 5.12656 27.354Z" fill="#617E8C"/>
</svg>
