<svg width="15" height="16" viewBox="0 0 15 16" fill="none" xmlns="http://www.w3.org/2000/svg">
<path d="M12.9787 0H2.0213C0.904987 0 0 0.946214 0 2.11346V13.5705C0 14.7378 0.90495 15.684 2.0213 15.684H7.42542L7.43463 10.0794H6.04205C5.86108 10.0794 5.71419 9.92638 5.71349 9.73715L5.70681 7.93055C5.70612 7.74029 5.85344 7.58567 6.03541 7.58567H7.42546V5.84004C7.42546 3.81424 8.60873 2.71119 10.3371 2.71119H11.7553C11.9367 2.71119 12.0839 2.865 12.0839 3.05476V4.5781C12.0839 4.76779 11.9368 4.92156 11.7555 4.92168L10.8851 4.9221C9.9452 4.9221 9.7632 5.38911 9.7632 6.07446V7.58571H11.8285C12.0253 7.58571 12.178 7.76538 12.1548 7.96973L11.95 9.77633C11.9304 9.94921 11.7902 10.0795 11.6237 10.0795H9.77241L9.7632 15.6841H12.9787C14.0951 15.6841 15 14.7379 15 13.5707V2.11346C15 0.946214 14.095 0 12.9787 0Z" fill="#9B9B9B"/>
</svg>
