<svg width="20" height="20" viewBox="0 0 20 20" fill="none" xmlns="http://www.w3.org/2000/svg">
<path fill-rule="evenodd" clip-rule="evenodd" d="M14.0915 6.52694C13.4557 6.4354 12.81 6.4354 12.1742 6.52694C12.1742 6.52694 11.9514 7.37939 11.8007 7.95604C11.7182 8.27134 11.4928 8.52963 11.1917 8.65428C10.8248 8.804 10.4804 9.00292 10.1635 9.24063C9.90659 9.4379 9.57214 9.50342 9.25969 9.41756C8.68327 9.26618 7.83365 9.03296 7.83365 9.03296C7.43652 9.53795 7.11366 10.0971 6.875 10.6934C6.875 10.6934 7.5018 11.3126 7.9259 11.7315C8.1577 11.9605 8.26863 12.285 8.22605 12.6081C8.17236 13.0005 8.17236 13.3983 8.21967 13.7917C8.26201 14.1127 8.15155 14.435 7.92117 14.6626C7.5018 15.0862 6.875 15.7054 6.875 15.7054C7.11366 16.3017 7.43652 16.8609 7.83365 17.3659C7.83365 17.3659 8.68303 17.1327 9.2578 16.9749C9.57214 16.8888 9.90896 16.9546 10.1675 17.1532C10.4795 17.3952 10.8227 17.5934 11.1857 17.7488C11.4871 17.8739 11.7127 18.1329 11.7953 18.4489C11.9526 19.0237 12.1742 19.8719 12.1742 19.8719C12.81 19.9634 13.4557 19.9634 14.0915 19.8719C14.0915 19.8719 14.3131 19.0237 14.464 18.4471C14.5471 18.1294 14.7741 17.8687 15.0776 17.7429C15.4421 17.5939 15.7841 17.3964 16.0992 17.1606C16.3584 16.9619 16.6955 16.8961 17.0103 16.9825C17.5867 17.1338 18.4321 17.3659 18.4321 17.3659C18.8292 16.8609 19.152 16.3017 19.3907 15.7054C19.3907 15.7054 18.767 15.0893 18.3431 14.6704C18.1094 14.4395 17.9973 14.1127 18.0399 13.787C18.0933 13.3969 18.0933 13.0019 18.0465 12.6109C18.0039 12.2874 18.1156 11.9626 18.3478 11.7332C18.767 11.3096 19.3907 10.6934 19.3907 10.6934C19.152 10.0971 18.8292 9.53795 18.4321 9.03296C18.4321 9.03296 17.5824 9.26618 17.0077 9.42394C16.6933 9.51028 16.357 9.44428 16.0985 9.24584C15.7853 9.00292 15.4409 8.804 15.0764 8.64836C14.7772 8.52442 14.5534 8.26755 14.4714 7.95439C14.3143 7.37939 14.0915 6.52694 14.0915 6.52694ZM13.1329 10.9744C14.3609 10.9744 15.3579 11.9714 15.3579 13.1994C15.3579 14.4275 14.3609 15.4244 13.1329 15.4244C11.9048 15.4244 10.9078 14.4275 10.9078 13.1994C10.9078 11.9714 11.9048 10.9744 13.1329 10.9744Z" fill="black"/>
<path fill-rule="evenodd" clip-rule="evenodd" d="M6.29917 0.248803C5.79391 0.176058 5.28075 0.176058 4.77549 0.248803C4.77549 0.248803 4.62173 0.836772 4.50387 1.28771C4.42361 1.59486 4.20726 1.84862 3.91684 1.97681C3.67944 2.07568 3.45632 2.20463 3.24729 2.35425C2.99297 2.54034 2.66759 2.60031 2.36365 2.51685C1.91214 2.40125 1.32605 2.24034 1.32605 2.24034C1.01045 2.64166 0.753871 3.08602 0.564209 3.55989C0.564209 3.55989 0.99654 3.98696 1.32812 4.31459C1.55406 4.53771 1.66571 4.85181 1.63131 5.1676C1.59842 5.42249 1.59842 5.68038 1.62342 5.93621C1.65744 6.24937 1.54673 6.56121 1.32248 6.78264C0.99654 7.11591 0.564209 7.54298 0.564209 7.54298C0.753871 8.01685 1.01045 8.46121 1.32605 8.86252C1.32605 8.86252 1.91177 8.70181 2.3612 8.57831C2.66759 8.49429 2.99579 8.55463 3.25199 8.74241C3.45538 8.89768 3.67737 9.02606 3.91026 9.13189C4.20068 9.26027 4.41684 9.51403 4.49711 9.82136C4.62267 10.2697 4.77549 10.8541 4.77549 10.8541C5.28075 10.9268 5.79391 10.9268 6.29917 10.8541C6.29917 10.8541 6.45199 10.2697 6.56966 9.81929C6.65068 9.50971 6.86854 9.25388 7.16121 9.12456C7.39617 9.02644 7.61741 8.8988 7.82455 8.75068C8.08094 8.56328 8.40876 8.50313 8.71515 8.58734C9.16609 8.70256 9.74861 8.86252 9.74861 8.86252C10.0642 8.46121 10.3208 8.01685 10.5105 7.54298C10.5105 7.54298 10.0808 7.11854 9.74955 6.79128C9.52192 6.56628 9.40933 6.24993 9.44372 5.9317C9.47624 5.67907 9.47624 5.4238 9.45162 5.17023C9.4176 4.85463 9.52944 4.54053 9.75538 4.31722C10.0808 3.98433 10.5105 3.55989 10.5105 3.55989C10.3208 3.08602 10.0642 2.64166 9.74861 2.24034C9.74861 2.24034 9.16252 2.40125 8.71309 2.52455C8.40688 2.60858 8.07906 2.54824 7.82286 2.36065C7.61835 2.20463 7.39523 2.07568 7.16102 1.96967C6.87267 1.84241 6.6582 1.59053 6.5785 1.28564C6.45293 0.836772 6.29917 0.248803 6.29917 0.248803ZM5.53733 3.7832C6.51327 3.7832 7.30557 4.5755 7.30557 5.55143C7.30557 6.52738 6.51327 7.31967 5.53733 7.31967C4.56139 7.31967 3.7691 6.52738 3.7691 5.55143C3.7691 4.5755 4.56139 3.7832 5.53733 3.7832Z" fill="black"/>
</svg>
