<svg width="16" height="16" viewBox="0 0 16 16" fill="none" xmlns="http://www.w3.org/2000/svg">
<path d="M14.9274 3.98429C14.212 2.75868 13.2416 1.78829 12.0159 1.07292C10.79 0.357591 9.45182 0 8.00025 0C6.54883 0 5.21022 0.357591 3.98457 1.07292C2.75884 1.78818 1.78844 2.75857 1.07303 3.98429C0.357593 5.21009 0 6.54869 0 8C0 9.45138 0.357702 10.7898 1.07293 12.0156C1.78829 13.2412 2.75869 14.2116 3.98442 14.9271C5.21022 15.6424 6.54872 16 8.00011 16C9.4515 16 10.7901 15.6424 12.0159 14.9271C13.2415 14.2119 14.2119 13.2412 14.9272 12.0156C15.6424 10.7899 16 9.45131 16 8C16 6.54855 15.6424 5.2099 14.9274 3.98429ZM6.66686 1.99986C6.66686 1.90259 6.69806 1.8228 6.76063 1.76034C6.82309 1.69791 6.90303 1.66657 7.00023 1.66657H9.00036C9.09748 1.66657 9.17742 1.69791 9.23974 1.76034C9.30216 1.8228 9.33361 1.90259 9.33361 1.99986V3.66658C9.33361 3.76378 9.30216 3.84368 9.23974 3.90607C9.17742 3.96853 9.09752 3.99976 9.00036 3.99976H7.00023C6.90303 3.99976 6.82313 3.96853 6.76063 3.90607C6.69806 3.84372 6.66686 3.76378 6.66686 3.66658V1.99986ZM10.6668 13C10.6668 13.0971 10.6353 13.1771 10.5731 13.2394C10.5109 13.3019 10.4309 13.3332 10.3336 13.3332H5.6668C5.56949 13.3332 5.4897 13.3019 5.4272 13.2394C5.36473 13.1771 5.3335 13.0972 5.3335 12.9999V11.3332C5.3335 11.2358 5.36473 11.1561 5.4272 11.0936C5.4897 11.0313 5.5696 10.9998 5.6668 10.9998H6.66686V7.6666H5.6668C5.56949 7.6666 5.48973 7.6354 5.4272 7.5729C5.36473 7.51048 5.3335 7.43058 5.3335 7.33331V5.6667C5.3335 5.56943 5.36473 5.48964 5.4272 5.4271C5.48977 5.3646 5.56967 5.33341 5.6668 5.33341H9.00036C9.09748 5.33341 9.17742 5.3646 9.23974 5.4271C9.30216 5.48964 9.33361 5.56943 9.33361 5.6667V11.0001H10.3333C10.4307 11.0001 10.5106 11.0313 10.5731 11.0937C10.6352 11.1562 10.6667 11.236 10.6667 11.3333V13H10.6668V13Z" fill="#FBBA00"/>
</svg>
