<svg width="16" height="16" viewBox="0 0 16 16" fill="none" xmlns="http://www.w3.org/2000/svg">
<g clip-path="url(#clip0)">
<path d="M12.1643 10.5843C11.6416 10.0683 10.989 10.0683 10.4696 10.5843C10.0734 10.9772 9.67719 11.3701 9.28764 11.7696C9.1811 11.8795 9.0912 11.9028 8.96135 11.8295C8.70498 11.6897 8.43197 11.5765 8.18559 11.4233C7.03693 10.7009 6.07472 9.77194 5.22238 8.72649C4.79954 8.2071 4.42331 7.65108 4.16029 7.02515C4.10702 6.89863 4.117 6.81539 4.22022 6.71218C4.61642 6.32929 5.00264 5.93642 5.39218 5.54354C5.93488 4.99751 5.93488 4.35826 5.38885 3.8089C5.07922 3.49593 4.76958 3.18962 4.45994 2.87665C4.14031 2.55703 3.82401 2.23407 3.50106 1.91777C2.97833 1.40837 2.32576 1.40837 1.80637 1.9211C1.40683 2.31398 1.02395 2.71684 0.617753 3.10306C0.241526 3.45931 0.051747 3.89546 0.0117936 4.40487C-0.0514659 5.2339 0.15163 6.01632 0.437963 6.77877C1.02395 8.35693 1.91624 9.75862 2.99831 11.0438C4.45994 12.7818 6.20457 14.1568 8.24552 15.149C9.16445 15.5951 10.1167 15.9381 11.1521 15.9947C11.8646 16.0346 12.4839 15.8548 12.98 15.2988C13.3196 14.9193 13.7025 14.573 14.0621 14.2101C14.5948 13.6707 14.5981 13.0182 14.0687 12.4854C13.4361 11.8495 12.8002 11.2169 12.1643 10.5843Z" fill="#253238"/>
<path d="M11.5284 7.93077L12.7569 7.72101C12.5638 6.59233 12.0311 5.57019 11.2221 4.7578C10.3664 3.90213 9.28432 3.36276 8.09238 3.19629L7.91925 4.43151C8.84151 4.56136 9.68053 4.97754 10.3431 5.6401C10.969 6.26604 11.3785 7.05845 11.5284 7.93077Z" fill="#253238"/>
<path d="M13.4495 2.59031C12.0311 1.17197 10.2365 0.276344 8.25551 0L8.08238 1.23523C9.79372 1.47495 11.3452 2.25071 12.5705 3.47262C13.7325 4.63459 14.4949 6.10288 14.7712 7.71766L15.9998 7.50791C15.6769 5.63676 14.7946 3.93874 13.4495 2.59031Z" fill="#253238"/>
</g>
<defs>
<clipPath id="clip0">
<rect width="16" height="16" fill="white"/>
</clipPath>
</defs>
</svg>
