<svg width="20" height="20" viewBox="0 0 20 20" fill="none" xmlns="http://www.w3.org/2000/svg">
<path fill-rule="evenodd" clip-rule="evenodd" d="M12.788 14.2889C11.4488 15.3121 9.77533 15.9198 7.9599 15.9198C3.56377 15.9198 0 12.3561 0 7.95991C0 3.56377 3.56377 0 7.9599 0C12.356 0 15.9198 3.56377 15.9198 7.95991C15.9198 9.77533 15.3121 11.4488 14.2889 12.788L20 18.4991L18.4991 20L12.788 14.2889ZM13.7972 7.95991C13.7972 11.1837 11.1837 13.7972 7.9599 13.7972C4.73607 13.7972 2.12264 11.1837 2.12264 7.95991C2.12264 4.73608 4.73607 2.12264 7.9599 2.12264C11.1837 2.12264 13.7972 4.73608 13.7972 7.95991Z" fill="#999999"/>
</svg>
