<svg width="20" height="20" viewBox="0 0 20 20" fill="none" xmlns="http://www.w3.org/2000/svg">
<path fill-rule="evenodd" clip-rule="evenodd" d="M6.83892 2.0946C7.86317 2.0946 8.6935 1.27782 8.6935 0.270278C8.6935 0.207007 8.69022 0.14449 8.68383 0.0828792C9.11427 0.0281985 9.55314 0 9.99871 0C10.4912 0 10.9754 0.0344448 11.4492 0.101018C11.444 0.15675 11.4413 0.213208 11.4413 0.270278C11.4413 1.27782 12.2716 2.0946 13.2959 2.0946C13.9646 2.0946 14.5506 1.74647 14.8769 1.22441C15.6569 1.64484 16.3747 2.16296 17.0133 2.76204C16.7505 3.07687 16.5928 3.47978 16.5928 3.91894C16.5928 4.92648 17.4231 5.74326 18.4474 5.74326C18.691 5.74326 18.9236 5.69706 19.1367 5.61309C19.5379 6.42028 19.8319 7.28849 20.0003 8.19976C19.1195 8.34149 18.4474 9.09357 18.4474 10.0001C18.4474 10.9066 19.1195 11.6586 20.0002 11.8004C19.8318 12.7116 19.5379 13.5797 19.1367 14.3869C18.9236 14.3029 18.691 14.2567 18.4474 14.2567C17.4231 14.2567 16.5928 15.0735 16.5928 16.0811C16.5928 16.5202 16.7505 16.9231 17.0133 17.238C16.3747 17.837 15.6569 18.3552 14.8769 18.7756C14.5506 18.2535 13.9646 17.9054 13.2959 17.9054C12.2716 17.9054 11.4413 18.7222 11.4413 19.7297C11.4413 19.7868 11.444 19.8432 11.4492 19.899C10.9754 19.9656 10.4912 20 9.99871 20C9.55314 20 9.11427 19.9718 8.68383 19.9171C8.69022 19.8555 8.6935 19.793 8.6935 19.7297C8.6935 18.7222 7.86317 17.9054 6.83892 17.9054C6.14686 17.9054 5.54333 18.2783 5.22465 18.8309C4.43523 18.4171 3.70784 17.9039 3.05975 17.3082C3.35938 16.9842 3.54202 16.5536 3.54202 16.0811C3.54202 15.0735 2.71169 14.2567 1.68744 14.2567C1.40007 14.2567 1.12797 14.321 0.885191 14.4358C0.473933 13.6197 0.17261 12.7406 0.000268252 11.8171C0.946074 11.7338 1.68742 10.9521 1.68742 10.0001C1.68742 9.04802 0.946061 8.26631 0.000244141 8.18307C0.172583 7.25949 0.473917 6.38029 0.885195 5.56421C1.12798 5.67897 1.40007 5.74326 1.68744 5.74326C2.71169 5.74326 3.54202 4.92648 3.54202 3.91894C3.54202 3.4464 3.35938 3.01582 3.05976 2.69179C3.70785 2.09611 4.43524 1.58287 5.22465 1.16905C5.54334 1.72172 6.14686 2.0946 6.83892 2.0946ZM9.99858 10.9459C10.5297 10.9459 10.9602 10.5224 10.9602 9.99999C10.9602 9.47756 10.5297 9.05405 9.99858 9.05405C9.46748 9.05405 9.03694 9.47756 9.03694 9.99999C9.03694 10.5224 9.46748 10.9459 9.99858 10.9459Z" fill="#000"/>
</svg>
