<svg width="20" height="20" viewBox="0 0 20 20" fill="none" xmlns="http://www.w3.org/2000/svg">
<path fill-rule="evenodd" clip-rule="evenodd" d="M18.7113 2.79221C18.7113 2.80106 18.6968 2.8083 18.6791 2.8083C18.6614 2.8083 18.6469 2.81554 18.6469 2.82439C18.6469 2.83324 18.6324 2.84048 18.6146 2.84048C18.5945 2.84048 18.5824 2.85121 18.5824 2.8691C18.5824 2.88486 18.5679 2.90817 18.5502 2.92093C18.52 2.94267 18.518 2.96258 18.518 3.23937C18.518 3.54277 18.5105 3.5806 18.4502 3.5806C18.4382 3.5806 18.418 3.59508 18.4052 3.61278C18.3925 3.63048 18.3707 3.64496 18.3569 3.64496C18.3431 3.64496 18.3214 3.65944 18.3086 3.67714C18.2958 3.69484 18.2725 3.70932 18.2567 3.70932C18.2409 3.70932 18.228 3.71656 18.228 3.72541C18.228 3.73426 18.2151 3.7415 18.1994 3.7415C18.1836 3.7415 18.1603 3.75598 18.1475 3.77368C18.1347 3.79137 18.113 3.80585 18.0992 3.80585C18.0854 3.80585 18.0636 3.82033 18.0508 3.83803C18.0381 3.85573 18.0163 3.87021 18.0025 3.87021C17.9887 3.87021 17.967 3.88469 17.9542 3.90239C17.9414 3.92009 17.9181 3.93457 17.9023 3.93457C17.8865 3.93457 17.8736 3.94181 17.8736 3.95066C17.8736 3.95951 17.8607 3.96675 17.845 3.96675C17.8292 3.96675 17.8059 3.98123 17.7931 3.99893C17.7803 4.01663 17.7586 4.03111 17.7448 4.03111C17.731 4.03111 17.7092 4.04559 17.6964 4.06329C17.6837 4.08099 17.6619 4.09547 17.6481 4.09547C17.6343 4.09547 17.6126 4.10995 17.5998 4.12765C17.587 4.14534 17.5637 4.15982 17.5479 4.15982C17.5322 4.15982 17.5193 4.16706 17.5193 4.17591C17.5193 4.18476 17.5063 4.192 17.4906 4.192C17.4748 4.192 17.4515 4.20648 17.4387 4.22418C17.4259 4.24188 17.4042 4.25636 17.3904 4.25636C17.3766 4.25636 17.3548 4.27084 17.3421 4.28854C17.3293 4.30624 17.3059 4.32072 17.2902 4.32072C17.2744 4.32072 17.2615 4.32796 17.2615 4.33681C17.2615 4.34566 17.2486 4.3529 17.2329 4.3529C17.2171 4.3529 17.1937 4.36738 17.181 4.38508C17.1682 4.40278 17.1464 4.41726 17.1326 4.41726C17.1188 4.41726 17.0971 4.43174 17.0843 4.44944C17.0715 4.46713 17.0498 4.48162 17.036 4.48162C17.0222 4.48162 17.0004 4.4961 16.9877 4.51379C16.9749 4.53149 16.9515 4.54597 16.9358 4.54597C16.92 4.54597 16.9071 4.55321 16.9071 4.56206C16.9071 4.57091 16.8942 4.57815 16.8785 4.57815C16.8627 4.57815 16.8393 4.59263 16.8266 4.61033C16.8138 4.62803 16.7921 4.64251 16.7782 4.64251C16.7644 4.64251 16.7427 4.65699 16.7299 4.67469C16.7171 4.69239 16.6938 4.70687 16.678 4.70687C16.6623 4.70687 16.6494 4.71411 16.6494 4.72296C16.6494 4.73181 16.6365 4.73905 16.6207 4.73905C16.605 4.73905 16.5816 4.75353 16.5688 4.77123C16.5561 4.78893 16.5343 4.80341 16.5205 4.80341C16.5067 4.80341 16.485 4.81789 16.4722 4.83559C16.4594 4.85328 16.4361 4.86776 16.4203 4.86776C16.4045 4.86776 16.3916 4.875 16.3916 4.88385C16.3916 4.8927 16.3787 4.89994 16.363 4.89994C16.3472 4.89994 16.3239 4.91442 16.3111 4.93212C16.2983 4.94982 16.2766 4.9643 16.2628 4.9643C16.249 4.9643 16.2272 4.97878 16.2144 4.99648C16.2017 5.01418 16.1799 5.02866 16.1661 5.02866C16.1523 5.02866 16.1306 5.04314 16.1178 5.06084C16.105 5.07854 16.0817 5.09302 16.0659 5.09302C16.0501 5.09302 16.0372 5.10026 16.0372 5.10911C16.0372 5.11796 16.0243 5.1252 16.0086 5.1252C15.9928 5.1252 15.9695 5.13968 15.9567 5.15738C15.9439 5.17508 15.9222 5.18956 15.9084 5.18956C15.8946 5.18956 15.8728 5.20404 15.86 5.22173C15.8473 5.23943 15.8239 5.25391 15.8082 5.25391C15.7924 5.25391 15.7795 5.26115 15.7795 5.27C15.7795 5.27885 15.7666 5.28609 15.7508 5.28609C15.7351 5.28609 15.7117 5.30057 15.699 5.31827C15.6862 5.33597 15.6644 5.35045 15.6506 5.35045C15.6368 5.35045 15.6151 5.36493 15.6023 5.38263C15.5895 5.40033 15.5678 5.41481 15.554 5.41481C15.5402 5.41481 15.5184 5.42929 15.5057 5.44699C15.4929 5.46469 15.4695 5.47917 15.4538 5.47917C15.438 5.47917 15.4251 5.48641 15.4251 5.49526C15.4251 5.50411 15.4122 5.51135 15.3965 5.51135C15.3807 5.51135 15.3573 5.52583 15.3446 5.54353C15.3318 5.56122 15.31 5.57571 15.2962 5.57571C15.2824 5.57571 15.2607 5.59019 15.2479 5.60788C15.2351 5.62558 15.2134 5.64006 15.1996 5.64006C15.1858 5.64006 15.164 5.65454 15.1513 5.67224C15.1385 5.68994 15.1151 5.70442 15.0994 5.70442C15.0836 5.70442 15.0707 5.71166 15.0707 5.72051C15.0707 5.72936 15.0578 5.7366 15.0421 5.7366C15.0263 5.7366 15.003 5.75108 14.9902 5.76878C14.9774 5.78648 14.9557 5.80096 14.9418 5.80096C14.928 5.80096 14.9063 5.81544 14.8935 5.83314C14.8807 5.85084 14.8574 5.86532 14.8416 5.86532C14.8259 5.86532 14.813 5.87256 14.813 5.88141C14.813 5.89026 14.8001 5.8975 14.7843 5.8975C14.7686 5.8975 14.7452 5.91198 14.7324 5.92968C14.7197 5.94737 14.6979 5.96185 14.6841 5.96185C14.6703 5.96185 14.6486 5.97633 14.6358 5.99403C14.623 6.01173 14.5997 6.02621 14.5839 6.02621C14.5681 6.02621 14.5552 6.03345 14.5552 6.0423C14.5552 6.05115 14.5423 6.05839 14.5266 6.05839C14.5108 6.05839 14.4875 6.07287 14.4747 6.09057C14.4619 6.10827 14.4402 6.12275 14.4264 6.12275C14.4126 6.12275 14.3908 6.13723 14.378 6.15493C14.3653 6.17263 14.3435 6.18711 14.3297 6.18711C14.3159 6.18711 14.2942 6.20159 14.2814 6.21929C14.2686 6.23699 14.2453 6.25147 14.2295 6.25147C14.2138 6.25147 14.2008 6.25871 14.2008 6.26756C14.2008 6.27641 14.1863 6.28365 14.1686 6.28365C14.1509 6.28365 14.1364 6.29089 14.1364 6.29973C14.1364 6.31043 12.1711 6.31582 8.27282 6.31582C4.3745 6.31582 2.40923 6.32121 2.40923 6.33191C2.40923 6.34076 2.39812 6.348 2.38454 6.348C2.35247 6.348 2.24815 6.4522 2.24815 6.48423C2.24815 6.4978 2.2409 6.5089 2.23204 6.5089C2.22318 6.5089 2.21593 6.52338 2.21593 6.54108C2.21593 6.55878 2.20868 6.57326 2.19982 6.57326C2.18972 6.57326 2.18371 6.67515 2.18371 6.84678C2.18371 7.01841 2.18972 7.1203 2.19982 7.1203C2.20868 7.1203 2.21593 7.14043 2.21593 7.16501C2.21593 7.19127 2.22923 7.2193 2.24815 7.23293C2.26587 7.24569 2.28036 7.269 2.28036 7.28475C2.28036 7.30264 2.29243 7.31338 2.31258 7.31338C2.3303 7.31338 2.3448 7.32062 2.3448 7.32947C2.3448 7.33832 2.3593 7.34556 2.37702 7.34556C2.39474 7.34556 2.40923 7.3528 2.40923 7.36165C2.40923 7.37083 2.45756 7.37773 2.52199 7.37773C2.58643 7.37773 2.63476 7.38464 2.63476 7.39382C2.63476 7.40301 2.68308 7.40991 2.74752 7.40991C2.81195 7.40991 2.86028 7.41682 2.86028 7.426C2.86028 7.43519 2.90861 7.44209 2.97304 7.44209C3.03748 7.44209 3.0858 7.449 3.0858 7.45818C3.0858 7.46737 3.13413 7.47427 3.19856 7.47427C3.263 7.47427 3.31132 7.48117 3.31132 7.49036C3.31132 7.49921 3.33307 7.50645 3.35965 7.50645C3.39723 7.50645 3.40798 7.51359 3.40798 7.53863C3.40798 7.55633 3.41523 7.57081 3.42409 7.57081C3.43454 7.57081 3.44019 7.7884 3.44019 8.1914C3.44019 8.70781 3.43633 8.81587 3.41717 8.83498C3.40274 8.84941 3.36073 8.85797 3.30441 8.85797C3.25506 8.85797 3.21467 8.86521 3.21467 8.87406C3.21467 8.88301 3.17171 8.89015 3.11802 8.89015C3.06433 8.89015 3.02137 8.8973 3.02137 8.90624C3.02137 8.91543 2.97304 8.92233 2.90861 8.92233C2.84417 8.92233 2.79584 8.92923 2.79584 8.93842C2.79584 8.94737 2.75288 8.95451 2.69919 8.95451C2.6455 8.95451 2.60254 8.96165 2.60254 8.9706C2.60254 8.97955 2.55958 8.98669 2.50589 8.98669C2.4522 8.98669 2.40923 8.99383 2.40923 9.00278C2.40923 9.01197 2.36091 9.01887 2.29647 9.01887C2.23204 9.01887 2.18371 9.02577 2.18371 9.03496C2.18371 9.0439 2.14075 9.05105 2.08706 9.05105C2.03337 9.05105 1.99041 9.05819 1.99041 9.06714C1.99041 9.07608 1.94744 9.08323 1.89375 9.08323C1.84006 9.08323 1.7971 9.09037 1.7971 9.09932C1.7971 9.1085 1.74877 9.11541 1.68434 9.11541C1.6199 9.11541 1.57158 9.12231 1.57158 9.1315C1.57158 9.14034 1.54614 9.14759 1.51504 9.14759C1.46415 9.14759 1.43839 9.16767 1.2573 9.34854C1.14664 9.45908 1.0561 9.5571 1.0561 9.56638C1.0561 9.57565 0.990857 9.64784 0.911119 9.72681C0.83138 9.80578 0.76614 9.87813 0.76614 9.88759C0.76614 9.89707 0.686401 9.984 0.588943 10.0808C0.491485 10.1776 0.411747 10.2645 0.411747 10.2739C0.411747 10.2833 0.339258 10.363 0.250659 10.4508C0.162061 10.5387 0.0895718 10.6188 0.0895718 10.6289C0.0895718 10.6389 0.0660208 10.6692 0.0372183 10.6963C0.00413093 10.7273 -0.00772512 10.748 0.0050008 10.7523C0.0160836 10.7561 0.0251367 10.7699 0.0251367 10.7831C0.0251367 10.7962 0.0613815 10.8422 0.105681 10.8853C0.14998 10.9284 0.186224 10.9733 0.186224 10.9852C0.186224 10.9971 0.200722 11.0173 0.218442 11.0301C0.236162 11.0428 0.250659 11.0631 0.250659 11.0751C0.250659 11.0871 0.279655 11.1248 0.315094 11.1588C0.350534 11.1928 0.37953 11.229 0.37953 11.2392C0.37953 11.2495 0.408525 11.2857 0.443965 11.3197C0.479404 11.3537 0.5084 11.39 0.5084 11.4004C0.5084 11.4109 0.530146 11.4397 0.556726 11.4645C0.583305 11.4893 0.605052 11.5182 0.605052 11.5288C0.605052 11.5394 0.626799 11.5684 0.653378 11.5932C0.679958 11.618 0.701705 11.6467 0.701705 11.657C0.701705 11.6673 0.737949 11.711 0.782249 11.7541C0.826548 11.7972 0.862792 11.8409 0.862792 11.8512C0.862792 11.8615 0.884539 11.8902 0.911119 11.915C0.937698 11.9398 0.959445 11.9685 0.959445 11.9788C0.959445 11.9891 0.99569 12.0328 1.03999 12.0759C1.08429 12.119 1.12053 12.1621 1.12053 12.1716C1.12053 12.1943 1.35635 12.4299 1.37906 12.4299C1.38863 12.4299 1.43177 12.4661 1.47493 12.5103C1.51808 12.5545 1.56182 12.5907 1.57213 12.5907C1.58244 12.5907 1.61119 12.6125 1.63601 12.639C1.66084 12.6656 1.69115 12.6873 1.70335 12.6873C1.71556 12.6873 1.736 12.7018 1.74877 12.7195C1.76155 12.7372 1.7833 12.7516 1.7971 12.7516C1.81091 12.7516 1.83265 12.7661 1.84543 12.7838C1.8582 12.8015 1.88154 12.816 1.89731 12.816C1.91307 12.816 1.92597 12.8232 1.92597 12.8321C1.92597 12.8409 1.93887 12.8482 1.95463 12.8482C1.9704 12.8482 1.99374 12.8627 2.00651 12.8804C2.01929 12.8981 2.04263 12.9125 2.0584 12.9125C2.07416 12.9125 2.08706 12.9198 2.08706 12.9286C2.08706 12.9375 2.10156 12.9447 2.11928 12.9447C2.137 12.9447 2.15149 12.952 2.15149 12.9608C2.15149 12.9697 2.16599 12.9769 2.18371 12.9769C2.20143 12.9769 2.21593 12.9841 2.21593 12.993C2.21593 13.0018 2.23043 13.0091 2.24815 13.0091C2.26587 13.0091 2.28036 13.0163 2.28036 13.0252C2.28036 13.034 2.30211 13.0413 2.32869 13.0413C2.35527 13.0413 2.37702 13.0485 2.37702 13.0573C2.37702 13.0662 2.39151 13.0734 2.40923 13.0734C2.42695 13.0734 2.44145 13.0807 2.44145 13.0895C2.44145 13.0984 2.4632 13.1056 2.48978 13.1056C2.51636 13.1056 2.5381 13.1129 2.5381 13.1217C2.5381 13.1306 2.55985 13.1378 2.58643 13.1378C2.61301 13.1378 2.63476 13.145 2.63476 13.1539C2.63476 13.1627 2.6565 13.17 2.68308 13.17C2.70966 13.17 2.73141 13.1772 2.73141 13.1861C2.73141 13.1949 2.7604 13.2022 2.79584 13.2022C2.83128 13.2022 2.86028 13.2094 2.86028 13.2182C2.86028 13.2271 2.88927 13.2343 2.92471 13.2343C2.96015 13.2343 2.98915 13.2416 2.98915 13.2504C2.98915 13.2594 3.03211 13.2665 3.0858 13.2665C3.13949 13.2665 3.18245 13.2737 3.18245 13.2826C3.18245 13.2914 3.21145 13.2987 3.24689 13.2987C3.28233 13.2987 3.31132 13.2914 3.31132 13.2826C3.31132 13.2738 3.34757 13.2665 3.39187 13.2665C3.43617 13.2665 3.47241 13.2593 3.47241 13.2504C3.47241 13.2416 3.50866 13.2343 3.55296 13.2343C3.59725 13.2343 3.6335 13.2271 3.6335 13.2182C3.6335 13.2094 3.66974 13.2022 3.71404 13.2022C3.75834 13.2022 3.79459 13.1949 3.79459 13.1861C3.79459 13.1772 3.83083 13.17 3.87513 13.17C3.91943 13.17 3.95567 13.1627 3.95567 13.1539C3.95567 13.145 3.99192 13.1378 4.03622 13.1378C4.08052 13.1378 4.11676 13.1306 4.11676 13.1217C4.11676 13.1129 4.15301 13.1056 4.19731 13.1056C4.2416 13.1056 4.27785 13.0984 4.27785 13.0895C4.27785 13.0807 4.31409 13.0734 4.35839 13.0734C4.40269 13.0734 4.43894 13.0662 4.43894 13.0573C4.43894 13.0485 4.47518 13.0413 4.51948 13.0413C4.56378 13.0413 4.60002 13.034 4.60002 13.0252C4.60002 13.0163 4.63627 13.0091 4.68057 13.0091C4.72487 13.0091 4.76111 13.0018 4.76111 12.993C4.76111 12.9841 4.79736 12.9769 4.84166 12.9769C4.88596 12.9769 4.9222 12.9697 4.9222 12.9608C4.9222 12.952 4.95844 12.9447 5.00274 12.9447C5.04704 12.9447 5.08329 12.9375 5.08329 12.9286C5.08329 12.9198 5.11953 12.9125 5.16383 12.9125C5.20813 12.9125 5.24438 12.9053 5.24438 12.8965C5.24438 12.8876 5.26612 12.8804 5.2927 12.8804C5.34891 12.8804 5.35412 12.8647 5.30881 12.8321C5.29109 12.8193 5.27659 12.7989 5.27659 12.7867C5.27659 12.7745 5.25485 12.7443 5.22827 12.7195C5.20169 12.6947 5.17994 12.6657 5.17994 12.6551C5.17994 12.6445 5.15819 12.6155 5.13161 12.5907C5.10503 12.566 5.08329 12.5372 5.08329 12.5269C5.08329 12.5166 5.04704 12.473 5.00274 12.4299C4.95844 12.3868 4.9222 12.3431 4.9222 12.3328C4.9222 12.3225 4.90045 12.2938 4.87387 12.269C4.84729 12.2442 4.82555 12.2123 4.82555 12.1981C4.82555 12.184 4.8183 12.1724 4.80944 12.1724C4.80058 12.1724 4.79333 12.1579 4.79333 12.1402C4.79333 12.1225 4.78608 12.1081 4.77722 12.1081C4.76836 12.1081 4.76111 12.0863 4.76111 12.0598C4.76111 12.0332 4.75386 12.0115 4.745 12.0115C4.73614 12.0115 4.7289 11.9826 4.7289 11.9472C4.7289 11.9118 4.73614 11.8828 4.745 11.8828C4.75386 11.8828 4.76111 11.8611 4.76111 11.8345C4.76111 11.808 4.76836 11.7863 4.77722 11.7863C4.78608 11.7863 4.79333 11.7748 4.79333 11.7609C4.79333 11.7469 4.82233 11.7077 4.85776 11.6736C4.8932 11.6396 4.9222 11.6038 4.9222 11.5939C4.9222 11.584 4.99469 11.5041 5.08329 11.4162C5.17189 11.3283 5.24438 11.2487 5.24438 11.2392C5.24438 11.2298 5.31686 11.1501 5.40546 11.0622C5.49406 10.9744 5.56655 10.8947 5.56655 10.8852C5.56655 10.8757 5.63179 10.8033 5.71153 10.7244C5.81827 10.6187 5.85651 10.57 5.85651 10.5399C5.85651 10.5175 5.84926 10.4991 5.8404 10.4991C5.83154 10.4991 5.82429 10.4774 5.82429 10.4508C5.82429 10.4243 5.81704 10.4026 5.80818 10.4026C5.79932 10.4026 5.79207 10.3808 5.79207 10.3543C5.79207 10.3278 5.78482 10.306 5.77596 10.306C5.7671 10.306 5.75986 10.2771 5.75986 10.2417C5.75986 10.2063 5.75261 10.1773 5.74375 10.1773C5.73489 10.1773 5.72764 10.1411 5.72764 10.0969C5.72764 10.0526 5.72039 10.0164 5.71153 10.0164C5.70233 10.0164 5.69542 9.96815 5.69542 9.90379C5.69542 9.83944 5.68851 9.79117 5.67931 9.79117C5.66947 9.79117 5.6632 9.71608 5.6632 9.59809C5.6632 9.48011 5.65694 9.40502 5.64709 9.40502C5.63703 9.40502 5.63099 9.30848 5.63099 9.14759C5.63099 8.98669 5.63703 8.89015 5.64709 8.89015C5.65694 8.89015 5.6632 8.81506 5.6632 8.69708V8.504H5.58266C5.53836 8.504 5.50212 8.51124 5.50212 8.52009C5.50212 8.52928 5.45379 8.53618 5.38935 8.53618C5.32492 8.53618 5.27659 8.54308 5.27659 8.55227C5.27659 8.56122 5.23363 8.56836 5.17994 8.56836C5.12625 8.56836 5.08329 8.57551 5.08329 8.58445C5.08329 8.59364 5.03496 8.60054 4.97053 8.60054C4.90609 8.60054 4.85776 8.60744 4.85776 8.61663C4.85776 8.62558 4.8148 8.63272 4.76111 8.63272C4.70742 8.63272 4.66446 8.63986 4.66446 8.64881C4.66446 8.65775 4.6215 8.6649 4.56781 8.6649C4.51412 8.6649 4.47115 8.67204 4.47115 8.68099C4.47115 8.68984 4.46391 8.69708 4.45505 8.69708C4.44466 8.69708 4.43894 8.52239 4.43894 8.2052C4.43894 7.80036 4.44301 7.70924 4.46196 7.69034C4.48902 7.66329 4.7289 7.6571 4.7289 7.68344C4.7289 7.69262 4.77722 7.69953 4.84166 7.69953C4.90609 7.69953 4.95442 7.70643 4.95442 7.71562C4.95442 7.725 5.00811 7.7317 5.08329 7.7317C5.15847 7.7317 5.21216 7.73841 5.21216 7.74779C5.21216 7.75698 5.26048 7.76388 5.32492 7.76388C5.38935 7.76388 5.43768 7.77079 5.43768 7.77997C5.43768 7.78916 5.48601 7.79606 5.55044 7.79606C5.61488 7.79606 5.6632 7.80297 5.6632 7.81215C5.6632 7.82134 5.71153 7.82824 5.77596 7.82824C5.8404 7.82824 5.88873 7.83514 5.88873 7.84433C5.88873 7.85371 5.94242 7.86042 6.0176 7.86042C6.09278 7.86042 6.14647 7.86713 6.14647 7.87651C6.14647 7.88546 6.18943 7.8926 6.24312 7.8926C6.29681 7.8926 6.33977 7.89974 6.33977 7.90869C6.33977 7.91807 6.39346 7.92478 6.46864 7.92478C6.54382 7.92478 6.59751 7.93149 6.59751 7.94087C6.59751 7.95006 6.64584 7.95696 6.71027 7.95696C6.77471 7.95696 6.82303 7.96386 6.82303 7.97305C6.82303 7.98224 6.87136 7.98914 6.9358 7.98914C7.00023 7.98914 7.04856 7.99604 7.04856 8.00523C7.04856 8.01461 7.10225 8.02132 7.17743 8.02132C7.25261 8.02132 7.3063 8.02803 7.3063 8.03741C7.3063 8.04659 7.35462 8.0535 7.41906 8.0535C7.48349 8.0535 7.53182 8.0604 7.53182 8.06959C7.53182 8.07877 7.58015 8.08568 7.64458 8.08568C7.70902 8.08568 7.75734 8.09258 7.75734 8.10176C7.75734 8.11114 7.81103 8.11785 7.88621 8.11785C7.96139 8.11785 8.01508 8.12456 8.01508 8.13394C8.01508 8.14289 8.05804 8.15003 8.11173 8.15003C8.16543 8.15003 8.20839 8.15718 8.20839 8.16612C8.20839 8.1755 8.26208 8.18221 8.33726 8.18221C8.41244 8.18221 8.46613 8.18892 8.46613 8.1983C8.46613 8.20749 8.51445 8.21439 8.57889 8.21439C8.64332 8.21439 8.69165 8.22129 8.69165 8.23048C8.69165 8.23933 8.72479 8.24657 8.76528 8.24657C8.80763 8.24657 8.84871 8.25634 8.86194 8.26956C8.88131 8.2889 8.88496 8.42891 8.88496 9.15449V10.0164H8.82052C8.78508 10.0164 8.75609 10.0237 8.75609 10.0325C8.75609 10.0417 8.70776 10.0486 8.64332 10.0486C8.57889 10.0486 8.53056 10.0555 8.53056 10.0647C8.53056 10.0736 8.4876 10.0808 8.43391 10.0808C8.38022 10.0808 8.33726 10.0879 8.33726 10.0969C8.33726 10.1058 8.2943 10.113 8.2406 10.113C8.18691 10.113 8.14395 10.1201 8.14395 10.129C8.14395 10.1382 8.09563 10.1451 8.03119 10.1451C7.96676 10.1451 7.91843 10.152 7.91843 10.1612C7.91843 10.1702 7.87547 10.1773 7.82178 10.1773C7.76809 10.1773 7.72512 10.1845 7.72512 10.1934C7.72512 10.2026 7.6768 10.2095 7.61236 10.2095C7.54793 10.2095 7.4996 10.2164 7.4996 10.2256C7.4996 10.2345 7.45664 10.2417 7.40295 10.2417C7.34926 10.2417 7.3063 10.2488 7.3063 10.2578C7.3063 10.2667 7.26333 10.2739 7.20964 10.2739C7.15595 10.2739 7.11299 10.281 7.11299 10.2899C7.11299 10.2989 7.07003 10.306 7.01634 10.306C6.96265 10.306 6.91969 10.3132 6.91969 10.3221C6.91969 10.3313 6.87136 10.3382 6.80693 10.3382C6.74249 10.3382 6.69416 10.3451 6.69416 10.3543C6.69416 10.3632 6.67593 10.3704 6.65363 10.3704C6.62469 10.3704 6.57866 10.4048 6.49255 10.4908C6.42624 10.557 6.37199 10.6222 6.37199 10.6356C6.37199 10.6493 6.35783 10.66 6.33977 10.66C6.32155 10.66 6.30755 10.6707 6.30755 10.6847C6.30755 10.6983 6.23506 10.7813 6.14647 10.8692C6.05787 10.957 5.98538 11.0367 5.98538 11.0462C5.98538 11.0556 5.91289 11.1353 5.82429 11.2231C5.73569 11.311 5.6632 11.3906 5.6632 11.4001C5.6632 11.4095 5.58346 11.4964 5.48601 11.5932C5.38855 11.69 5.30881 11.7772 5.30881 11.787C5.30881 11.7968 5.27981 11.8327 5.24438 11.8667C5.20826 11.9014 5.17994 11.9438 5.17994 11.9633C5.17994 11.9827 5.20826 12.0251 5.24438 12.0598C5.27981 12.0938 5.30881 12.1302 5.30881 12.1406C5.30881 12.151 5.33056 12.1798 5.35714 12.2046C5.38372 12.2294 5.40546 12.2582 5.40546 12.2686C5.40546 12.279 5.43446 12.3154 5.4699 12.3494C5.50534 12.3834 5.53433 12.4196 5.53433 12.4299C5.53433 12.4401 5.56333 12.4763 5.59877 12.5103C5.63421 12.5443 5.6632 12.5807 5.6632 12.5911C5.6632 12.6015 5.68495 12.6303 5.71153 12.6551C5.73811 12.6799 5.75986 12.7087 5.75986 12.7191C5.75986 12.7296 5.78885 12.7659 5.82429 12.7999C5.85973 12.8339 5.88873 12.8703 5.88873 12.8807C5.88873 12.8911 5.91047 12.9199 5.93705 12.9447C5.96363 12.9695 5.98538 12.9983 5.98538 13.0088C5.98538 13.0192 6.01437 13.0555 6.04981 13.0895C6.08525 13.1235 6.11425 13.1596 6.11425 13.1698C6.11425 13.1799 6.15049 13.2234 6.19479 13.2665C6.23909 13.3096 6.27534 13.3527 6.27534 13.3622C6.27534 13.3851 6.60813 13.717 6.63113 13.717C6.64097 13.717 6.66934 13.7387 6.69416 13.7653C6.71899 13.7918 6.74798 13.8136 6.7586 13.8136C6.76921 13.8136 6.79821 13.8353 6.82303 13.8618C6.84786 13.8884 6.87817 13.9101 6.89037 13.9101C6.90258 13.9101 6.92302 13.9246 6.9358 13.9423C6.94857 13.96 6.97032 13.9745 6.98412 13.9745C6.99793 13.9745 7.01967 13.9889 7.03245 14.0066C7.04522 14.0243 7.06856 14.0388 7.08433 14.0388C7.10009 14.0388 7.11299 14.046 7.11299 14.0549C7.11299 14.0637 7.12589 14.071 7.14165 14.071C7.15742 14.071 7.18076 14.0855 7.19354 14.1032C7.20631 14.1209 7.22965 14.1353 7.24542 14.1353C7.26118 14.1353 7.27408 14.1426 7.27408 14.1514C7.27408 14.1603 7.28858 14.1675 7.3063 14.1675C7.32402 14.1675 7.33851 14.1748 7.33851 14.1836C7.33851 14.1925 7.36026 14.1997 7.38684 14.1997C7.41342 14.1997 7.43517 14.2069 7.43517 14.2158C7.43517 14.2246 7.44966 14.2319 7.46738 14.2319C7.4851 14.2319 7.4996 14.2391 7.4996 14.248C7.4996 14.2568 7.5141 14.2641 7.53182 14.2641C7.54954 14.2641 7.56404 14.2713 7.56404 14.2802C7.56404 14.289 7.58578 14.2962 7.61236 14.2962C7.63894 14.2962 7.66069 14.3035 7.66069 14.3123C7.66069 14.3212 7.67519 14.3284 7.69291 14.3284C7.71063 14.3284 7.72512 14.3357 7.72512 14.3445C7.72512 14.3534 7.74687 14.3606 7.77345 14.3606C7.80003 14.3606 7.82178 14.3678 7.82178 14.3767C7.82178 14.3855 7.85077 14.3928 7.88621 14.3928C7.92165 14.3928 7.95065 14.4 7.95065 14.4089C7.95065 14.4177 7.97964 14.425 8.01508 14.425C8.05052 14.425 8.07952 14.4322 8.07952 14.441C8.07952 14.4499 8.10851 14.4571 8.14395 14.4571C8.17939 14.4571 8.20839 14.4644 8.20839 14.4732C8.20839 14.4824 8.25626 14.4893 8.31981 14.4893C8.39319 14.4893 8.43443 14.4962 8.44063 14.5094C8.44813 14.5255 8.4519 14.5255 8.45941 14.5094C8.46458 14.4984 8.49719 14.4893 8.5319 14.4893C8.56661 14.4893 8.595 14.4821 8.595 14.4732C8.595 14.4644 8.63124 14.4571 8.67554 14.4571C8.71984 14.4571 8.75609 14.4499 8.75609 14.441C8.75609 14.4322 8.79233 14.425 8.83663 14.425C8.88093 14.425 8.91717 14.4177 8.91717 14.4089C8.91717 14.4 8.95342 14.3928 8.99772 14.3928C9.04202 14.3928 9.07826 14.3855 9.07826 14.3767C9.07826 14.3678 9.11451 14.3606 9.1588 14.3606C9.2031 14.3606 9.23935 14.3534 9.23935 14.3445C9.23935 14.3357 9.27559 14.3284 9.31989 14.3284C9.36419 14.3284 9.40044 14.3212 9.40044 14.3123C9.40044 14.3035 9.43668 14.2962 9.48098 14.2962C9.52528 14.2962 9.56152 14.289 9.56152 14.2802C9.56152 14.2713 9.59777 14.2641 9.64207 14.2641C9.68637 14.2641 9.72261 14.2568 9.72261 14.248C9.72261 14.2391 9.75886 14.2319 9.80315 14.2319C9.84745 14.2319 9.8837 14.2246 9.8837 14.2158C9.8837 14.2069 9.91994 14.1997 9.96424 14.1997C10.0085 14.1997 10.0448 14.1925 10.0448 14.1836C10.0448 14.1748 10.081 14.1675 10.1253 14.1675C10.1696 14.1675 10.2059 14.1603 10.2059 14.1514C10.2059 14.1426 10.2421 14.1353 10.2864 14.1353C10.3307 14.1353 10.367 14.1281 10.367 14.1193C10.367 14.1104 10.4032 14.1032 10.4475 14.1032C10.4918 14.1032 10.528 14.0959 10.528 14.0871C10.528 14.0782 10.5643 14.071 10.6086 14.071C10.6529 14.071 10.6891 14.0637 10.6891 14.0549C10.6891 14.046 10.7254 14.0388 10.7697 14.0388C10.814 14.0388 10.8502 14.0316 10.8502 14.0227C10.8502 14.0139 10.8865 14.0066 10.9308 14.0066C10.9751 14.0066 11.0113 13.9994 11.0113 13.9905C11.0113 13.9817 11.0476 13.9745 11.0919 13.9745C11.1362 13.9745 11.1724 13.9672 11.1724 13.9584C11.1724 13.9495 11.2014 13.9423 11.2368 13.9423C11.2723 13.9423 11.3013 13.935 11.3013 13.9262C11.3013 13.9172 11.3442 13.9101 11.3979 13.9101C11.4516 13.9101 11.4946 13.9029 11.4946 13.894C11.4946 13.8852 11.5277 13.8779 11.5682 13.8779C11.613 13.8779 11.6516 13.8682 11.6666 13.8532C11.6889 13.8309 11.688 13.8255 11.6574 13.799C11.6387 13.7828 11.6234 13.7593 11.6234 13.7468C11.6234 13.7343 11.6089 13.7137 11.5912 13.7009C11.5723 13.6873 11.559 13.6593 11.559 13.633C11.559 13.6084 11.5518 13.5883 11.5429 13.5883C11.5335 13.5883 11.5268 13.5347 11.5268 13.4596C11.5268 13.3845 11.5335 13.3309 11.5429 13.3309C11.5518 13.3309 11.559 13.318 11.559 13.3022C11.559 13.2865 11.5735 13.2632 11.5912 13.2504C11.6089 13.2377 11.6234 13.2177 11.6234 13.2061C11.6234 13.1945 11.6959 13.113 11.7845 13.0252C11.8731 12.9373 11.9456 12.8543 11.9456 12.8407C11.9456 12.8271 11.9529 12.816 11.9617 12.816C11.9706 12.816 11.9778 12.8015 11.9778 12.7838C11.9778 12.7651 11.9671 12.7516 11.9521 12.7516C11.9379 12.7516 11.906 12.7299 11.8812 12.7034C11.8564 12.6768 11.8275 12.6551 11.8171 12.6551C11.8067 12.6551 11.7703 12.6261 11.7362 12.5907C11.7022 12.5554 11.6664 12.5264 11.6568 12.5264C11.6337 12.5264 11.2368 12.1297 11.2368 12.1066C11.2368 12.0968 11.2151 12.0685 11.1885 12.0437C11.1619 12.0189 11.1402 11.987 11.1402 11.9729C11.1402 11.9587 11.1329 11.9472 11.1241 11.9472C11.1152 11.9472 11.108 11.9327 11.108 11.915C11.108 11.8973 11.1007 11.8828 11.0919 11.8828C11.083 11.8828 11.0757 11.8683 11.0757 11.8506C11.0757 11.8329 11.0685 11.8185 11.0596 11.8185C11.0508 11.8185 11.0435 11.804 11.0435 11.7863C11.0435 11.7686 11.0363 11.7541 11.0274 11.7541C11.0186 11.7541 11.0113 11.7324 11.0113 11.7058C11.0113 11.6793 11.0041 11.6576 10.9952 11.6576C10.9863 11.6576 10.9791 11.6358 10.9791 11.6093C10.9791 11.5827 10.9718 11.561 10.963 11.561C10.9541 11.561 10.9469 11.5393 10.9469 11.5127C10.9469 11.4862 10.9396 11.4645 10.9308 11.4645C10.9219 11.4645 10.9147 11.4283 10.9147 11.384C10.9147 11.3398 10.9074 11.3036 10.8986 11.3036C10.8896 11.3036 10.8824 11.2607 10.8824 11.207C10.8824 11.1534 10.8753 11.1105 10.8663 11.1105C10.8569 11.1105 10.8502 11.0569 10.8502 10.9818C10.8502 10.9067 10.8435 10.8531 10.8341 10.8531C10.8237 10.8531 10.818 10.6654 10.818 10.3221C10.818 9.97888 10.8237 9.79117 10.8341 9.79117C10.8596 9.79117 10.8529 9.74325 10.8233 9.71374C10.8038 9.6942 10.7946 9.69231 10.7898 9.70684C10.7857 9.71914 10.7526 9.72681 10.7039 9.72681C10.6604 9.72681 10.6247 9.73405 10.6247 9.7429C10.6247 9.75209 10.5764 9.75899 10.5119 9.75899C10.4475 9.75899 10.3992 9.76589 10.3992 9.77508C10.3992 9.78427 10.3509 9.79117 10.2864 9.79117C10.222 9.79117 10.1737 9.79807 10.1737 9.80726C10.1737 9.8162 10.1307 9.82335 10.077 9.82335C10.0233 9.82335 9.98035 9.83049 9.98035 9.83944C9.98035 9.84829 9.9586 9.85553 9.93202 9.85553H9.8837V9.171V8.48645L9.92325 8.44697C9.95363 8.41661 9.97974 8.40747 10.036 8.40747C10.0763 8.40747 10.1092 8.41471 10.1092 8.42356C10.1092 8.43274 10.1575 8.43965 10.222 8.43965C10.2864 8.43965 10.3347 8.44655 10.3347 8.45573C10.3347 8.46512 10.3884 8.47182 10.4636 8.47182C10.5388 8.47182 10.5925 8.47853 10.5925 8.48791C10.5925 8.49729 10.6462 8.504 10.7214 8.504C10.7965 8.504 10.8502 8.51071 10.8502 8.52009C10.8502 8.52904 10.8932 8.53618 10.9469 8.53618C11.0006 8.53618 11.0435 8.54333 11.0435 8.55227C11.0435 8.56146 11.0919 8.56836 11.1563 8.56836C11.2207 8.56836 11.2691 8.57526 11.2691 8.58445C11.2691 8.59364 11.3174 8.60054 11.3818 8.60054C11.4462 8.60054 11.4946 8.60744 11.4946 8.61663C11.4946 8.62582 11.5429 8.63272 11.6073 8.63272C11.6718 8.63272 11.7201 8.63962 11.7201 8.64881C11.7201 8.65819 11.7738 8.6649 11.849 8.6649C11.9241 8.6649 11.9778 8.67161 11.9778 8.68099C11.9778 8.69018 12.0262 8.69708 12.0906 8.69708C12.155 8.69708 12.2034 8.70398 12.2034 8.71317C12.2034 8.72235 12.2517 8.72926 12.3161 8.72926C12.3806 8.72926 12.4289 8.73616 12.4289 8.74535C12.4289 8.75473 12.4826 8.76144 12.5578 8.76144C12.6329 8.76144 12.6866 8.76815 12.6866 8.77753C12.6866 8.78671 12.7349 8.79362 12.7994 8.79362C12.8638 8.79362 12.9121 8.80052 12.9121 8.8097C12.9121 8.81889 12.9605 8.82579 13.0249 8.82579C13.0893 8.82579 13.1377 8.8327 13.1377 8.84188C13.1377 8.85107 13.186 8.85797 13.2504 8.85797C13.3149 8.85797 13.3632 8.86488 13.3632 8.87406C13.3632 8.88344 13.4169 8.89015 13.4921 8.89015C13.5672 8.89015 13.6209 8.89686 13.6209 8.90624C13.6209 8.91543 13.6693 8.92233 13.7337 8.92233C13.7981 8.92233 13.8465 8.92923 13.8465 8.93842C13.8465 8.94761 13.8948 8.95451 13.9592 8.95451C14.0237 8.95451 14.072 8.96141 14.072 8.9706C14.072 8.97979 14.1203 8.98669 14.1847 8.98669C14.2492 8.98669 14.2975 8.99359 14.2975 9.00278C14.2975 9.01197 14.3458 9.01887 14.4103 9.01887C14.4747 9.01887 14.523 9.02577 14.523 9.03496C14.523 9.04434 14.5767 9.05105 14.6519 9.05105C14.7271 9.05105 14.7808 9.05776 14.7808 9.06714C14.7808 9.07632 14.8291 9.08323 14.8935 9.08323C14.958 9.08323 15.0063 9.09013 15.0063 9.09932C15.0063 9.1085 15.0546 9.11541 15.119 9.11541C15.1835 9.11541 15.2318 9.12231 15.2318 9.1315C15.2318 9.14088 15.2855 9.14759 15.3607 9.14759C15.4359 9.14759 15.4895 9.15429 15.4895 9.16367C15.4895 9.17252 15.5082 9.17976 15.531 9.17976C15.6222 9.17976 15.6184 9.12783 15.6184 10.3704C15.6184 11.341 15.6149 11.5185 15.5954 11.538C15.5801 11.5533 15.5368 11.561 15.4665 11.561C15.4067 11.561 15.3607 11.568 15.3607 11.5771C15.3607 11.5861 15.3177 11.5932 15.264 11.5932C15.2103 11.5932 15.1674 11.6003 15.1674 11.6093C15.1674 11.6182 15.1244 11.6254 15.0707 11.6254C15.017 11.6254 14.9741 11.6325 14.9741 11.6415C14.9741 11.6504 14.9311 11.6576 14.8774 11.6576C14.8237 11.6576 14.7808 11.6647 14.7808 11.6736C14.7808 11.6828 14.7324 11.6897 14.668 11.6897C14.6036 11.6897 14.5552 11.6966 14.5552 11.7058C14.5552 11.715 14.5069 11.7219 14.4425 11.7219C14.378 11.7219 14.3297 11.7288 14.3297 11.738C14.3297 11.7469 14.2868 11.7541 14.2331 11.7541C14.1794 11.7541 14.1364 11.7612 14.1364 11.7702C14.1364 11.7791 14.0934 11.7863 14.0398 11.7863C13.9861 11.7863 13.9431 11.7934 13.9431 11.8024C13.9431 11.8113 13.9001 11.8185 13.8465 11.8185C13.7928 11.8185 13.7498 11.8256 13.7498 11.8345C13.7498 11.8437 13.7015 11.8506 13.637 11.8506C13.5726 11.8506 13.5243 11.8575 13.5243 11.8667C13.5243 11.8756 13.488 11.8828 13.4437 11.8828C13.3821 11.8828 13.3632 11.8886 13.3632 11.9075C13.3632 11.9211 13.2907 12.0041 13.2021 12.092C13.1135 12.1799 13.041 12.2595 13.041 12.269C13.041 12.2784 12.9685 12.3581 12.8799 12.4459C12.7913 12.5338 12.7188 12.6134 12.7188 12.6228C12.7188 12.6323 12.6319 12.7264 12.5255 12.8321C12.4192 12.9378 12.3322 13.0319 12.3322 13.0413C12.3322 13.0508 12.2597 13.1304 12.1711 13.2182C12.0825 13.3061 12.0101 13.3865 12.0101 13.3968C12.0101 13.4071 11.9944 13.4291 11.9754 13.4456L11.9407 13.4757L11.9754 13.5057C11.9944 13.5222 12.0101 13.5447 12.0101 13.5556C12.0101 13.5665 12.0318 13.5957 12.0584 13.6205C12.085 13.6453 12.1067 13.6741 12.1067 13.6845C12.1067 13.6949 12.1357 13.7313 12.1711 13.7653C12.2066 13.7993 12.2356 13.8356 12.2356 13.8461C12.2356 13.8565 12.2573 13.8853 12.2839 13.9101C12.3105 13.9349 12.3322 13.9637 12.3322 13.9741C12.3322 13.9845 12.3612 14.0209 12.3967 14.0549C12.4321 14.0889 12.4611 14.1253 12.4611 14.1357C12.4611 14.1461 12.4828 14.1749 12.5094 14.1997C12.536 14.2245 12.5578 14.2533 12.5578 14.2637C12.5578 14.2742 12.5867 14.3105 12.6222 14.3445C12.6576 14.3785 12.6866 14.4147 12.6866 14.425C12.6866 14.4352 12.7156 14.4714 12.7511 14.5054C12.7865 14.5394 12.8155 14.5758 12.8155 14.5862C12.8155 14.5966 12.8372 14.6254 12.8638 14.6502C12.8904 14.675 12.9121 14.7037 12.9121 14.7139C12.9121 14.7241 12.9556 14.7751 13.0088 14.8272C13.062 14.8793 13.1055 14.9298 13.1055 14.9393C13.1055 14.9619 13.2767 15.1329 13.2993 15.1329C13.3088 15.1329 13.3593 15.1763 13.4115 15.2294C13.4637 15.2825 13.5148 15.326 13.525 15.326C13.5352 15.326 13.5639 15.3477 13.5887 15.3742C13.6135 15.4008 13.6439 15.4225 13.656 15.4225C13.6683 15.4225 13.6887 15.437 13.7015 15.4547C13.7142 15.4724 13.736 15.4869 13.7498 15.4869C13.7636 15.4869 13.7854 15.5013 13.7981 15.519C13.8109 15.5367 13.8342 15.5512 13.85 15.5512C13.8658 15.5512 13.8787 15.5585 13.8787 15.5673C13.8787 15.5762 13.8916 15.5834 13.9073 15.5834C13.9231 15.5834 13.9464 15.5979 13.9592 15.6156C13.972 15.6333 13.9953 15.6478 14.0111 15.6478C14.0269 15.6478 14.0398 15.655 14.0398 15.6639C14.0398 15.6727 14.0543 15.6799 14.072 15.6799C14.0897 15.6799 14.1042 15.6872 14.1042 15.696C14.1042 15.7049 14.1187 15.7121 14.1364 15.7121C14.1541 15.7121 14.1686 15.7194 14.1686 15.7282C14.1686 15.7371 14.1904 15.7443 14.217 15.7443C14.2435 15.7443 14.2653 15.7515 14.2653 15.7604C14.2653 15.7692 14.2798 15.7765 14.2975 15.7765C14.3152 15.7765 14.3297 15.7837 14.3297 15.7926C14.3297 15.8014 14.3442 15.8087 14.3619 15.8087C14.3797 15.8087 14.3942 15.8159 14.3942 15.8247C14.3942 15.8336 14.4159 15.8408 14.4425 15.8408C14.4691 15.8408 14.4908 15.8481 14.4908 15.8569C14.4908 15.8658 14.5126 15.873 14.5391 15.873C14.5657 15.873 14.5875 15.8803 14.5875 15.8891C14.5875 15.898 14.6092 15.9052 14.6358 15.9052C14.6624 15.9052 14.6841 15.9124 14.6841 15.9213C14.6841 15.9301 14.7131 15.9374 14.7485 15.9374C14.784 15.9374 14.813 15.9446 14.813 15.9535C14.813 15.9623 14.842 15.9696 14.8774 15.9696C14.9129 15.9696 14.9418 15.9768 14.9418 15.9856C14.9418 15.9946 14.9848 16.0017 15.0385 16.0017C15.0922 16.0017 15.1352 16.0089 15.1352 16.0178C15.1352 16.0267 15.1642 16.0339 15.1996 16.0339C15.235 16.0339 15.264 16.0267 15.264 16.0178C15.264 16.009 15.3003 16.0017 15.3446 16.0017C15.3889 16.0017 15.4251 15.9945 15.4251 15.9856C15.4251 15.9768 15.4614 15.9696 15.5057 15.9696C15.55 15.9696 15.5862 15.9623 15.5862 15.9535C15.5862 15.9446 15.6224 15.9374 15.6667 15.9374C15.711 15.9374 15.7473 15.9301 15.7473 15.9213C15.7473 15.9124 15.7835 15.9052 15.8278 15.9052C15.8721 15.9052 15.9084 15.898 15.9084 15.8891C15.9084 15.8803 15.9446 15.873 15.9889 15.873C16.0332 15.873 16.0695 15.8658 16.0695 15.8569C16.0695 15.8481 16.1057 15.8408 16.15 15.8408C16.1943 15.8408 16.2306 15.8336 16.2306 15.8247C16.2306 15.8159 16.2668 15.8087 16.3111 15.8087C16.3554 15.8087 16.3916 15.8014 16.3916 15.7926C16.3916 15.7837 16.4279 15.7765 16.4722 15.7765C16.5165 15.7765 16.5527 15.7692 16.5527 15.7604C16.5527 15.7515 16.589 15.7443 16.6333 15.7443C16.6776 15.7443 16.7138 15.7371 16.7138 15.7282C16.7138 15.7194 16.7501 15.7121 16.7944 15.7121C16.8387 15.7121 16.8749 15.7049 16.8749 15.696C16.8749 15.6872 16.9111 15.6799 16.9554 15.6799C16.9997 15.6799 17.036 15.6727 17.036 15.6639C17.036 15.655 17.065 15.6478 17.1004 15.6478C17.1359 15.6478 17.1649 15.6405 17.1649 15.6317C17.1649 15.6228 17.2011 15.6156 17.2454 15.6156C17.2897 15.6156 17.3259 15.6083 17.3259 15.5995C17.3259 15.5906 17.3622 15.5834 17.4065 15.5834C17.4508 15.5834 17.487 15.5762 17.487 15.5673C17.487 15.5584 17.53 15.5512 17.5837 15.5512C17.6374 15.5512 17.6803 15.5441 17.6803 15.5351C17.6803 15.5263 17.7093 15.519 17.7448 15.519C17.7802 15.519 17.8092 15.5118 17.8092 15.503C17.8092 15.494 17.8522 15.4869 17.9059 15.4869C17.9596 15.4869 18.0025 15.4797 18.0025 15.4708C18.0025 15.4619 18.0315 15.4547 18.0669 15.4547C18.1024 15.4547 18.1314 15.4474 18.1314 15.4386C18.1314 15.4297 18.1743 15.4225 18.228 15.4225C18.2817 15.4225 18.3247 15.4154 18.3247 15.4064C18.3247 15.3976 18.3537 15.3903 18.3891 15.3903C18.4246 15.3903 18.4536 15.3831 18.4536 15.3742C18.4536 15.3654 18.4898 15.3582 18.5341 15.3582C18.5784 15.3582 18.6146 15.3509 18.6146 15.3421C18.6146 15.3332 18.6509 15.326 18.6952 15.326C18.7395 15.326 18.7757 15.3187 18.7757 15.3099C18.7757 15.301 18.812 15.2938 18.8563 15.2938C18.9006 15.2938 18.9368 15.2866 18.9368 15.2777C18.9368 15.2689 18.9731 15.2616 19.0174 15.2616C19.0617 15.2616 19.0979 15.2544 19.0979 15.2455C19.0979 15.2367 19.1342 15.2294 19.1785 15.2294C19.2228 15.2294 19.259 15.2222 19.259 15.2133C19.259 15.2045 19.2952 15.1973 19.3395 15.1973C19.3838 15.1973 19.4201 15.19 19.4201 15.1812C19.4201 15.1723 19.4563 15.1651 19.5006 15.1651C19.5449 15.1651 19.5812 15.1578 19.5812 15.149C19.5812 15.1401 19.6174 15.1329 19.6617 15.1329C19.706 15.1329 19.7423 15.1257 19.7423 15.1168C19.7423 15.108 19.7785 15.1007 19.8228 15.1007C19.8671 15.1007 19.9033 15.0935 19.9033 15.0846C19.9033 15.0758 19.9251 15.0685 19.9517 15.0685C19.9783 15.0685 20 15.0644 20 15.0594C20 15.0405 19.9531 15.0042 19.9287 15.0042C19.9147 15.0042 19.9033 14.9969 19.9033 14.9881C19.9033 14.9792 19.8889 14.972 19.8711 14.972C19.8534 14.972 19.8389 14.9648 19.8389 14.9559C19.8389 14.9471 19.8244 14.9398 19.8067 14.9398C19.789 14.9398 19.7745 14.9326 19.7745 14.9237C19.7745 14.9149 19.76 14.9076 19.7423 14.9076C19.7245 14.9076 19.71 14.9004 19.71 14.8916C19.71 14.8827 19.6971 14.8755 19.6814 14.8755C19.6656 14.8755 19.6423 14.861 19.6295 14.8433C19.6167 14.8256 19.5934 14.8111 19.5776 14.8111C19.5619 14.8111 19.549 14.8039 19.549 14.795C19.549 14.7862 19.5361 14.7789 19.5203 14.7789C19.5045 14.7789 19.4812 14.7644 19.4684 14.7467C19.4556 14.7291 19.4323 14.7146 19.4165 14.7146C19.4008 14.7146 19.3879 14.7073 19.3879 14.6985C19.3879 14.6896 19.375 14.6824 19.3592 14.6824C19.3434 14.6824 19.3201 14.6679 19.3073 14.6502C19.2945 14.6325 19.2712 14.618 19.2554 14.618C19.2397 14.618 19.2268 14.6108 19.2268 14.6019C19.2268 14.5931 19.2139 14.5859 19.1981 14.5859C19.1824 14.5859 19.159 14.5714 19.1462 14.5537C19.1335 14.536 19.1117 14.5215 19.0979 14.5215C19.0841 14.5215 19.0624 14.507 19.0496 14.4893C19.0368 14.4716 19.0151 14.4571 19.0013 14.4571C18.9875 14.4571 18.9657 14.4427 18.9529 14.425C18.9402 14.4073 18.9184 14.3928 18.9046 14.3928C18.8908 14.3928 18.8691 14.3783 18.8563 14.3606C18.8435 14.3429 18.8231 14.3284 18.8109 14.3284C18.7987 14.3284 18.7683 14.3067 18.7435 14.2802C18.7187 14.2536 18.6897 14.2319 18.6791 14.2319C18.6685 14.2319 18.6395 14.2102 18.6146 14.1836C18.5898 14.1571 18.5611 14.1353 18.5508 14.1353C18.5405 14.1353 18.4967 14.0991 18.4536 14.0549C18.4104 14.0107 18.3673 13.9745 18.3577 13.9745C18.333 13.9745 18.0347 13.6734 18.0347 13.6484C18.0347 13.6369 18.0202 13.6172 18.0025 13.6044C17.9848 13.5916 17.9703 13.5699 17.9703 13.5561C17.9703 13.5423 17.9558 13.5206 17.9381 13.5079C17.9204 13.4951 17.9059 13.4734 17.9059 13.4596C17.9059 13.4458 17.8914 13.4241 17.8736 13.4113C17.8547 13.3977 17.8414 13.3697 17.8414 13.3434C17.8414 13.3188 17.8342 13.2987 17.8253 13.2987C17.8165 13.2987 17.8092 13.2842 17.8092 13.2665C17.8092 13.2488 17.802 13.2343 17.7931 13.2343C17.7842 13.2343 17.777 13.2126 17.777 13.1861C17.777 13.1595 17.7697 13.1378 17.7609 13.1378C17.752 13.1378 17.7448 13.1161 17.7448 13.0895C17.7448 13.063 17.7375 13.0413 17.7287 13.0413C17.7198 13.0413 17.7126 13.0123 17.7126 12.9769C17.7126 12.9415 17.7053 12.9125 17.6964 12.9125C17.6876 12.9125 17.6803 12.8763 17.6803 12.8321C17.6803 12.7878 17.6731 12.7516 17.6642 12.7516C17.655 12.7516 17.6481 12.7034 17.6481 12.639C17.6481 12.5747 17.6412 12.5264 17.632 12.5264C17.6222 12.5264 17.6159 12.4513 17.6159 12.3333C17.6159 12.2153 17.6096 12.1402 17.5998 12.1402C17.5896 12.1402 17.5837 12.033 17.5837 11.8506C17.5837 11.6683 17.5896 11.561 17.5998 11.561C17.6095 11.561 17.6159 11.4967 17.6159 11.4001V11.2392H17.5193C17.4656 11.2392 17.4226 11.2464 17.4226 11.2553C17.4226 11.2643 17.3796 11.2714 17.3259 11.2714C17.2723 11.2714 17.2293 11.2785 17.2293 11.2875C17.2293 11.2964 17.1863 11.3036 17.1326 11.3036C17.079 11.3036 17.036 11.3107 17.036 11.3197C17.036 11.3289 16.9877 11.3358 16.9232 11.3358C16.8588 11.3358 16.8105 11.3427 16.8105 11.3519C16.8105 11.3608 16.7675 11.3679 16.7138 11.3679H16.6172V10.3865C16.6172 9.7429 16.6227 9.40502 16.6333 9.40502C16.6421 9.40502 16.6494 9.39054 16.6494 9.37284C16.6494 9.34372 16.6601 9.34066 16.7621 9.34066C16.8266 9.34066 16.8749 9.34756 16.8749 9.35675C16.8749 9.36594 16.9232 9.37284 16.9877 9.37284C17.0521 9.37284 17.1004 9.37974 17.1004 9.38893C17.1004 9.39831 17.1541 9.40502 17.2293 9.40502C17.3045 9.40502 17.3582 9.41173 17.3582 9.42111C17.3582 9.4303 17.4065 9.4372 17.4709 9.4372C17.5354 9.4372 17.5837 9.4441 17.5837 9.45329C17.5837 9.46247 17.632 9.46938 17.6964 9.46938C17.7609 9.46938 17.8092 9.47628 17.8092 9.48547C17.8092 9.49465 17.8575 9.50156 17.922 9.50156C17.9864 9.50156 18.0347 9.50846 18.0347 9.51765C18.0347 9.52683 18.0831 9.53373 18.1475 9.53373C18.2119 9.53373 18.2603 9.54064 18.2603 9.54982C18.2603 9.5592 18.3139 9.56591 18.3891 9.56591C18.4643 9.56591 18.518 9.57262 18.518 9.582C18.518 9.59119 18.5663 9.59809 18.6308 9.59809C18.6952 9.59809 18.7435 9.605 18.7435 9.61418C18.7435 9.62337 18.7918 9.63027 18.8563 9.63027C18.9207 9.63027 18.969 9.63717 18.969 9.64636C18.969 9.65555 19.0174 9.66245 19.0818 9.66245C19.1462 9.66245 19.1946 9.65555 19.1946 9.64636C19.1946 9.63751 19.2163 9.63027 19.2429 9.63027C19.2695 9.63027 19.2912 9.62303 19.2912 9.61418C19.2912 9.60533 19.3023 9.59809 19.3159 9.59809C19.348 9.59809 19.4523 9.4939 19.4523 9.46186C19.4523 9.4483 19.4596 9.4372 19.4684 9.4372C19.4773 9.4372 19.4845 9.41548 19.4845 9.38893C19.4845 9.36238 19.4918 9.34066 19.5006 9.34066C19.5113 9.34066 19.5167 8.26802 19.5167 6.15493C19.5167 4.04184 19.5113 2.9692 19.5006 2.9692C19.4918 2.9692 19.4845 2.95472 19.4845 2.93702C19.4845 2.91932 19.4773 2.90484 19.4684 2.90484C19.4596 2.90484 19.4523 2.89036 19.4523 2.87266C19.4523 2.85121 19.4416 2.84048 19.4201 2.84048C19.4024 2.84048 19.3879 2.83324 19.3879 2.82439C19.3879 2.81554 19.3734 2.8083 19.3557 2.8083C19.3379 2.8083 19.3234 2.80106 19.3234 2.79221C19.3234 2.78204 19.2107 2.77612 19.0174 2.77612C18.8241 2.77612 18.7113 2.78204 18.7113 2.79221ZM18.4784 4.32804L18.518 4.36752V5.30218V6.23684L18.4784 6.27632L18.4389 6.31582H17.036H15.6331L15.5935 6.27632C15.5718 6.2546 15.554 6.2217 15.554 6.2032C15.554 6.16585 15.6211 6.09057 15.6544 6.09057C15.6661 6.09057 15.6862 6.07609 15.699 6.05839C15.7117 6.04069 15.7335 6.02621 15.7473 6.02621C15.7611 6.02621 15.7828 6.01173 15.7956 5.99403C15.8084 5.97633 15.8317 5.96185 15.8475 5.96185C15.8633 5.96185 15.8762 5.95461 15.8762 5.94576C15.8762 5.93692 15.8891 5.92968 15.9048 5.92968C15.9206 5.92968 15.9439 5.91519 15.9567 5.8975C15.9695 5.8798 15.9912 5.86532 16.005 5.86532C16.0188 5.86532 16.0406 5.85084 16.0534 5.83314C16.0661 5.81544 16.0879 5.80096 16.1017 5.80096C16.1155 5.80096 16.1372 5.78648 16.15 5.76878C16.1628 5.75108 16.1845 5.7366 16.1983 5.7366C16.2121 5.7366 16.2339 5.72212 16.2467 5.70442C16.2594 5.68672 16.2812 5.67224 16.295 5.67224C16.3088 5.67224 16.3305 5.65776 16.3433 5.64006C16.3561 5.62236 16.3778 5.60788 16.3916 5.60788C16.4054 5.60788 16.4272 5.5934 16.44 5.57571C16.4527 5.55801 16.4745 5.54353 16.4883 5.54353C16.5021 5.54353 16.5238 5.52905 16.5366 5.51135C16.5494 5.49365 16.5711 5.47917 16.5849 5.47917C16.5987 5.47917 16.6205 5.46469 16.6333 5.44699C16.646 5.42929 16.6678 5.41481 16.6816 5.41481C16.6954 5.41481 16.7171 5.40033 16.7299 5.38263C16.7427 5.36493 16.7644 5.35045 16.7782 5.35045C16.7921 5.35045 16.8138 5.33597 16.8266 5.31827C16.8393 5.30057 16.8627 5.28609 16.8785 5.28609C16.8942 5.28609 16.9071 5.27885 16.9071 5.27C16.9071 5.26115 16.9187 5.25391 16.9329 5.25391C16.947 5.25391 16.9789 5.23219 17.0038 5.20565C17.0286 5.1791 17.0589 5.15738 17.0711 5.15738C17.0833 5.15738 17.1038 5.1429 17.1165 5.1252C17.1293 5.1075 17.1511 5.09302 17.1649 5.09302C17.1787 5.09302 17.2004 5.07854 17.2132 5.06084C17.226 5.04314 17.2493 5.02866 17.2651 5.02866C17.2808 5.02866 17.2937 5.02142 17.2937 5.01257C17.2937 5.00372 17.3066 4.99648 17.3224 4.99648C17.3382 4.99648 17.3615 4.982 17.3743 4.9643C17.387 4.9466 17.4088 4.93212 17.4226 4.93212C17.4364 4.93212 17.4582 4.91764 17.4709 4.89994C17.4837 4.88225 17.5054 4.86776 17.5193 4.86776C17.5331 4.86776 17.5548 4.85328 17.5676 4.83559C17.5804 4.81789 17.6021 4.80341 17.6159 4.80341C17.6297 4.80341 17.6515 4.78893 17.6642 4.77123C17.677 4.75353 17.6988 4.73905 17.7126 4.73905C17.7264 4.73905 17.7481 4.72457 17.7609 4.70687C17.7737 4.68917 17.7954 4.67469 17.8092 4.67469C17.823 4.67469 17.8448 4.66021 17.8575 4.64251C17.8703 4.62481 17.8921 4.61033 17.9059 4.61033C17.9197 4.61033 17.9414 4.59585 17.9542 4.57815C17.967 4.56045 17.9887 4.54597 18.0025 4.54597C18.0163 4.54597 18.0381 4.53149 18.0508 4.51379C18.0636 4.4961 18.0854 4.48162 18.0992 4.48162C18.113 4.48162 18.1347 4.46713 18.1475 4.44944C18.1603 4.43174 18.182 4.41726 18.1958 4.41726C18.2096 4.41726 18.2314 4.40278 18.2441 4.38508C18.2569 4.36738 18.2787 4.3529 18.2925 4.3529C18.3063 4.3529 18.328 4.33842 18.3408 4.32072C18.3723 4.27712 18.4306 4.28022 18.4784 4.32804ZM11.9456 7.32947C11.9456 7.33832 11.9746 7.34556 12.0101 7.34556C12.0455 7.34556 12.0745 7.33832 12.0745 7.32947C12.0745 7.32062 12.1035 7.31338 12.1389 7.31338C12.1744 7.31338 12.2034 7.32062 12.2034 7.32947C12.2034 7.35275 12.2636 7.34927 12.2733 7.32544C12.2794 7.3103 12.2857 7.3113 12.2988 7.32947C12.3142 7.35091 12.3181 7.35091 12.3335 7.32947C12.3465 7.3113 12.3528 7.3103 12.359 7.32544C12.3655 7.34144 12.9927 7.34556 15.4196 7.34556C18.0435 7.34556 18.4752 7.34879 18.495 7.36855C18.514 7.38757 18.518 7.48623 18.518 7.94087C18.518 8.39551 18.514 8.49417 18.495 8.51319C18.4677 8.54043 18.1958 8.54669 18.1958 8.52009C18.1958 8.51115 18.1529 8.504 18.0992 8.504C18.0455 8.504 18.0025 8.49686 18.0025 8.48791C18.0025 8.47853 17.9488 8.47182 17.8736 8.47182C17.7985 8.47182 17.7448 8.46512 17.7448 8.45573C17.7448 8.44635 17.6911 8.43965 17.6159 8.43965C17.5407 8.43965 17.487 8.43294 17.487 8.42356C17.487 8.41461 17.4441 8.40747 17.3904 8.40747C17.3367 8.40747 17.2937 8.40032 17.2937 8.39138C17.2937 8.382 17.24 8.37529 17.1649 8.37529C17.0897 8.37529 17.036 8.36858 17.036 8.3592C17.036 8.35001 16.9877 8.34311 16.9232 8.34311C16.8588 8.34311 16.8105 8.33621 16.8105 8.32702C16.8105 8.31783 16.7621 8.31093 16.6977 8.31093C16.6333 8.31093 16.5849 8.30403 16.5849 8.29484C16.5849 8.28546 16.5313 8.27875 16.4561 8.27875C16.3809 8.27875 16.3272 8.27204 16.3272 8.26266C16.3272 8.25347 16.2789 8.24657 16.2144 8.24657C16.15 8.24657 16.1017 8.23967 16.1017 8.23048C16.1017 8.22129 16.0534 8.21439 15.9889 8.21439C15.9245 8.21439 15.8762 8.20749 15.8762 8.1983C15.8762 8.18892 15.8225 8.18221 15.7473 8.18221C15.6721 8.18221 15.6184 8.1755 15.6184 8.16612C15.6184 8.15718 15.5755 8.15003 15.5218 8.15003C15.4681 8.15003 15.4251 8.14289 15.4251 8.13394C15.4251 8.12456 15.3714 8.11785 15.2962 8.11785C15.2211 8.11785 15.1674 8.11114 15.1674 8.10176C15.1674 8.09258 15.119 8.08568 15.0546 8.08568C14.9902 8.08568 14.9418 8.07877 14.9418 8.06959C14.9418 8.0604 14.8935 8.0535 14.8291 8.0535C14.7647 8.0535 14.7163 8.04659 14.7163 8.03741C14.7163 8.02822 14.668 8.02132 14.6036 8.02132C14.5391 8.02132 14.4908 8.01441 14.4908 8.00523C14.4908 7.99585 14.4371 7.98914 14.3619 7.98914C14.2868 7.98914 14.2331 7.98243 14.2331 7.97305C14.2331 7.96386 14.1847 7.95696 14.1203 7.95696C14.0559 7.95696 14.0075 7.95006 14.0075 7.94087C14.0075 7.93168 13.9592 7.92478 13.8948 7.92478C13.8303 7.92478 13.782 7.91788 13.782 7.90869C13.782 7.89931 13.7283 7.8926 13.6531 7.8926C13.578 7.8926 13.5243 7.88589 13.5243 7.87651C13.5243 7.86732 13.476 7.86042 13.4115 7.86042C13.3471 7.86042 13.2988 7.85352 13.2988 7.84433C13.2988 7.83514 13.2504 7.82824 13.186 7.82824C13.1216 7.82824 13.0732 7.82134 13.0732 7.81215C13.0732 7.80297 13.0249 7.79606 12.9605 7.79606C12.896 7.79606 12.8477 7.78916 12.8477 7.77997C12.8477 7.77059 12.794 7.76388 12.7188 7.76388C12.6437 7.76388 12.59 7.75717 12.59 7.74779C12.59 7.73885 12.547 7.7317 12.4933 7.7317C12.4396 7.7317 12.3967 7.72456 12.3967 7.71562C12.3967 7.70624 12.343 7.69953 12.2678 7.69953C12.1926 7.69953 12.1389 7.69282 12.1389 7.68344C12.1389 7.67406 12.0852 7.66735 12.0101 7.66735C11.9349 7.66735 11.8812 7.66064 11.8812 7.65126C11.8812 7.64231 11.8382 7.63517 11.7845 7.63517C11.7308 7.63517 11.6879 7.62802 11.6879 7.61908C11.6879 7.6097 11.6342 7.60299 11.559 7.60299C11.4838 7.60299 11.4301 7.59628 11.4301 7.5869C11.4301 7.57771 11.3818 7.57081 11.3174 7.57081C11.2529 7.57081 11.2046 7.56391 11.2046 7.55472C11.2046 7.54587 11.1715 7.53863 11.131 7.53863C11.044 7.53863 11.0113 7.51223 11.0113 7.44209C11.0113 7.34737 11.0193 7.34556 11.437 7.34556C11.6794 7.34556 11.8167 7.33973 11.8167 7.32947C11.8167 7.32062 11.8457 7.31338 11.8812 7.31338C11.9166 7.31338 11.9456 7.32062 11.9456 7.32947Z" fill="#FBBA00"/>
</svg>
