<svg
 xmlns="http://www.w3.org/2000/svg"
 xmlns:xlink="http://www.w3.org/1999/xlink"
 width="134px" height="24px">
<path fill-rule="evenodd"  fill="#9B9B9B"
 d="M129.598,11.008 C129.414,11.816 130.261,12.041 130.261,12.041 L130.261,12.129 L130.261,12.216 C130.261,12.216 129.194,12.402 128.780,12.992 L127.719,15.568 L127.719,23.675 L122.840,23.675 L122.840,15.665 L121.735,12.994 C121.323,12.402 120.253,12.216 120.253,12.216 L120.253,12.129 L120.253,12.041 C120.253,12.041 121.091,11.818 120.918,11.019 L116.495,0.324 L121.660,0.324 L125.231,10.670 L128.866,0.324 L134.000,0.324 L129.598,11.008 ZM109.960,23.676 L105.496,15.503 L103.838,15.503 L103.838,23.676 L98.959,23.676 L98.959,13.087 C98.774,12.247 98.003,12.088 98.003,12.088 L98.003,12.000 L98.003,11.912 C98.003,11.912 98.774,11.753 98.959,10.914 L98.959,0.324 L105.560,0.324 C111.140,0.324 113.244,2.692 113.244,6.681 L113.244,9.762 C113.244,12.097 112.351,13.816 110.215,14.757 L115.412,23.676 L109.960,23.676 ZM108.365,6.941 C108.365,5.222 107.409,4.411 105.719,4.411 L103.838,4.411 L103.838,11.449 L105.687,11.449 C107.409,11.449 108.365,10.637 108.365,8.919 L108.365,6.941 ZM90.415,10.914 C90.600,11.753 91.372,11.912 91.372,11.912 L91.372,12.000 L91.372,12.088 C91.372,12.088 90.600,12.247 90.415,13.086 L90.415,23.675 L85.537,23.675 L85.537,13.076 C85.347,12.247 84.584,12.088 84.584,12.088 L84.584,12.000 L84.584,11.912 C84.584,11.912 85.347,11.754 85.537,10.925 L85.537,4.411 L80.626,4.411 L80.626,4.411 L80.626,0.324 L95.325,0.324 L95.325,4.411 L90.415,4.411 L90.415,10.914 ZM76.961,23.675 L72.975,23.675 L65.769,11.222 L64.908,9.146 L64.972,11.189 L64.972,23.676 L60.667,23.676 L60.667,13.087 C60.483,12.247 59.711,12.088 59.711,12.088 L59.711,12.000 L59.711,11.912 C59.711,11.912 60.483,11.753 60.667,10.914 L60.667,0.324 L64.653,0.324 L71.955,12.908 L72.720,14.692 L72.656,12.713 L72.656,0.324 L76.961,0.324 L76.961,10.914 C77.146,11.753 77.917,11.912 77.917,11.912 L77.917,12.000 L77.917,12.087 C77.917,12.087 77.146,12.247 76.961,13.086 L76.961,23.675 ZM55.535,17.773 C55.535,21.697 52.570,24.000 47.851,24.000 C43.163,24.000 40.166,21.697 40.166,17.773 L40.166,13.087 C39.981,12.247 39.210,12.088 39.210,12.088 L39.210,12.000 L39.210,11.912 C39.210,11.912 39.981,11.753 40.166,10.914 L40.166,0.324 L45.045,0.324 L45.045,10.925 C45.235,11.753 45.997,11.912 45.997,11.912 L45.997,12.000 L45.997,12.087 C45.997,12.087 45.235,12.246 45.045,13.074 L45.045,16.865 C45.045,18.778 45.969,19.621 47.851,19.621 C49.732,19.621 50.657,18.778 50.657,16.865 L50.657,13.083 C50.471,12.247 49.701,12.088 49.701,12.088 L49.701,12.000 L49.701,11.912 C49.701,11.912 50.471,11.753 50.657,10.917 L50.657,0.324 L55.535,0.324 L55.535,10.914 C55.720,11.753 56.492,11.912 56.492,11.912 L56.492,12.000 L56.492,12.087 C56.492,12.087 55.720,12.247 55.535,13.086 L55.535,17.773 ZM35.258,18.616 C35.258,22.022 32.292,24.000 27.573,24.000 C22.854,24.000 19.889,22.022 19.889,18.616 L19.889,13.087 C19.704,12.247 18.932,12.088 18.932,12.088 L18.932,12.000 L18.932,11.912 C18.932,11.912 19.704,11.753 19.889,10.914 L19.889,5.384 C19.889,1.978 22.854,0.000 27.573,0.000 C32.292,0.000 35.257,1.978 35.257,5.384 L35.257,10.914 C35.442,11.753 36.214,11.912 36.214,11.912 L36.214,12.000 L36.214,12.087 C36.214,12.087 35.442,12.247 35.258,13.086 L35.258,18.616 ZM30.379,13.087 C30.194,12.247 29.423,12.088 29.423,12.088 L29.423,12.000 L29.423,11.912 C29.423,11.912 30.194,11.753 30.379,10.914 L30.379,6.584 C30.379,5.060 29.486,4.378 27.573,4.378 C25.692,4.378 24.767,5.060 24.767,6.584 L24.767,10.913 C24.952,11.753 25.724,11.912 25.724,11.912 L25.724,12.000 L25.724,12.087 C25.724,12.087 24.952,12.247 24.767,13.086 L24.767,17.417 C24.767,18.941 25.692,19.622 27.573,19.622 C29.486,19.622 30.379,18.941 30.379,17.417 L30.379,13.087 ZM10.867,6.259 C10.867,4.962 9.910,4.378 8.348,4.378 C6.658,4.378 5.829,4.962 5.829,6.259 L5.829,10.944 C6.026,11.754 6.775,11.912 6.775,11.912 L6.775,12.000 L6.775,12.087 C6.775,12.087 6.027,12.245 5.829,13.056 L5.829,17.740 C5.829,19.038 6.658,19.621 8.348,19.621 C9.910,19.621 10.867,19.038 10.867,17.740 L10.867,15.211 L15.426,15.211 L15.426,18.908 C15.426,22.152 12.556,24.000 8.060,24.000 C3.692,24.000 0.950,22.151 0.950,18.908 L0.950,13.068 C0.757,12.246 -0.000,12.088 -0.000,12.088 L-0.000,12.000 L-0.000,11.912 C-0.000,11.912 0.757,11.754 0.950,10.932 L0.950,5.092 C0.950,1.849 3.820,0.000 8.347,0.000 C12.684,0.000 15.426,1.849 15.426,5.092 L15.426,8.724 L10.867,8.724 L10.867,6.259 Z"/>
</svg>
