<svg width="14" height="16" viewBox="0 0 14 16" fill="none" xmlns="http://www.w3.org/2000/svg">
<path d="M12.9586 3.9584L9.70858 0.708252C9.3612 0.361022 8.90273 0.135214 8.33337 0.0311584V5.33335H13.6356C13.5315 4.76374 13.3056 4.30548 12.9586 3.9584Z" fill="#FBBA00"/>
<path d="M8.00009 6.66659C7.72218 6.66659 7.48605 6.56943 7.29165 6.37496C7.09719 6.18061 7.00006 5.94447 7.00006 5.66664V0H1.33339C1.05566 0 0.819528 0.0971603 0.625098 0.291627C0.430632 0.485984 0.333435 0.722117 0.333435 0.999952V15C0.333435 15.278 0.430632 15.5141 0.625098 15.7085C0.819565 15.9028 1.05566 16 1.33342 16H12.667C12.9446 16 13.1806 15.9028 13.375 15.7085C13.5694 15.5139 13.6667 15.278 13.6667 15V6.66659H8.00009Z" fill="#FBBA00"/>
</svg>
