<svg width="22" height="18" viewBox="0 0 22 18" fill="none" xmlns="http://www.w3.org/2000/svg">
<path d="M4 16C4 17.1046 4.89543 18 6 18H20C21.1046 18 22 17.1046 22 16V2C22 0.89543 21.1046 0 20 0H6.125C5.02043 0 4.125 0.895432 4.125 2V5.5L0.5 9L4 12.5V16Z" fill="#1C6031" fill-opacity="0.18"/>
<path d="M10.75 4C10.3358 4 10 4.34439 10 4.76923V6.8994H11.5V5.53846H14.5V7.12046L12.607 8.31529C12.3851 8.4553 12.25 8.70329 12.25 8.97041V11.3077H13.75V9.40026L15.643 8.20542C15.8649 8.06542 16 7.81742 16 7.5503V4.76923C16 4.34439 15.6642 4 15.25 4H10.75Z" fill="#253238"/>
<path d="M13.75 12.4615H12.25V14H13.75V12.4615Z" fill="#253238"/>
</svg>
