<svg width="18" height="18" viewBox="0 0 18 18" fill="none" xmlns="http://www.w3.org/2000/svg">
<path d="M12.6377 0H5.3623C2.40551 0 0 2.40551 0 5.3623V12.6377C0 15.5945 2.40551 18 5.3623 18H12.6377C15.5945 18 18 15.5945 18 12.6377V5.3623C18 2.40551 15.5945 0 12.6377 0ZM16.1892 12.6377C16.1892 14.5991 14.5991 16.1892 12.6377 16.1892H5.3623C3.40088 16.1892 1.8108 14.5991 1.8108 12.6377V5.3623C1.8108 3.40084 3.40088 1.8108 5.3623 1.8108H12.6377C14.5991 1.8108 16.1892 3.40084 16.1892 5.3623V12.6377Z" fill="black"/>
<path d="M9.00017 4.34457C6.43315 4.34457 4.34473 6.433 4.34473 8.99998C4.34473 11.567 6.43315 13.6554 9.00017 13.6554C11.5672 13.6554 13.6556 11.567 13.6556 8.99998C13.6556 6.43297 11.5672 4.34457 9.00017 4.34457ZM9.00017 11.8447C7.4291 11.8447 6.15553 10.5711 6.15553 9.00001C6.15553 7.42895 7.42913 6.15537 9.00017 6.15537C10.5712 6.15537 11.8448 7.42895 11.8448 9.00001C11.8448 10.571 10.5712 11.8447 9.00017 11.8447Z" fill="black"/>
<path d="M13.6644 5.49505C14.2805 5.49505 14.7799 4.99561 14.7799 4.37952C14.7799 3.76342 14.2805 3.26398 13.6644 3.26398C13.0483 3.26398 12.5488 3.76342 12.5488 4.37952C12.5488 4.99561 13.0483 5.49505 13.6644 5.49505Z" fill="black"/>
</svg>
