<svg width="15" height="16" viewBox="0 0 15 16" fill="none" xmlns="http://www.w3.org/2000/svg">
<path d="M10.5314 0.231934H4.46858C2.0046 0.231934 0 2.32795 0 4.90431V11.2436C0 13.82 2.0046 15.916 4.46858 15.916H10.5314C12.9954 15.916 15 13.82 15 11.2436V4.90431C15 2.32795 12.9954 0.231934 10.5314 0.231934ZM13.491 11.2436C13.491 12.9527 12.1659 14.3382 10.5314 14.3382H4.46858C2.83406 14.3382 1.509 12.9527 1.509 11.2436V4.90431C1.509 3.19522 2.83406 1.80975 4.46858 1.80975H10.5314C12.1659 1.80975 13.491 3.19522 13.491 4.90431V11.2436Z" fill="#9B9B9B"/>
<path d="M7.5 4.01709C5.36083 4.01709 3.62048 5.8369 3.62048 8.07372C3.62048 10.3105 5.36083 12.1304 7.5 12.1304C9.63917 12.1304 11.3795 10.3106 11.3795 8.07372C11.3795 5.83687 9.63917 4.01709 7.5 4.01709ZM7.5 10.5525C6.19079 10.5525 5.12948 9.44274 5.12948 8.07374C5.12948 6.70475 6.19081 5.59498 7.5 5.59498C8.80921 5.59498 9.87052 6.70475 9.87052 8.07374C9.87052 9.44271 8.80919 10.5525 7.5 10.5525Z" fill="#9B9B9B"/>
<path d="M11.387 5.02002C11.9004 5.02002 12.3166 4.58477 12.3166 4.04785C12.3166 3.51094 11.9004 3.07568 11.387 3.07568C10.8736 3.07568 10.4574 3.51094 10.4574 4.04785C10.4574 4.58477 10.8736 5.02002 11.387 5.02002Z" fill="#9B9B9B"/>
</svg>
