<svg width="111" height="24" viewBox="0 0 111 24" fill="none" xmlns="http://www.w3.org/2000/svg">
<path fill-rule="evenodd" clip-rule="evenodd" d="M22.6167 19.0182C23.8219 15.2448 24.9697 12.7417 26.194 9.11997C26.6341 7.8685 26.9975 7.16682 26.8827 6.4462C26.6723 5.28951 25.8879 4.96721 25.1227 5.95326C25.0079 6.14285 24.874 6.29453 24.7784 6.46515C24.3193 7.22371 23.9175 8.02016 23.3818 8.94915C21.7749 11.6988 20.5697 15.3207 19.728 16.5532C18.6376 18.2597 17.1262 17.9374 16.6671 16.2119C15.4428 17.103 13.9697 16.1551 14.0271 14.6C14.0653 13.2159 14.4289 11.4523 14.6202 10.0302C14.8688 8.2856 15.3661 3.84845 15.3279 1.45906C15.2896 1.15571 15.2705 0.947161 15.2131 0.71966C14.9262 -0.0957632 14.0844 -0.190563 13.3767 0.302372C12.9749 0.567977 12.6306 1.15571 12.4585 1.91425C12.1523 3.01406 12.0566 4.20867 11.9036 5.40328C11.808 6.19973 10.488 13.3107 10.1818 13.8794C9.22547 15.8136 5.8584 12.5711 3.35242 11.8315C0.578462 11.0731 -1.14314 12.4952 0.903805 13.7088C2.262 14.5432 6.79581 18.0511 7.92448 19.2457C8.21157 19.5303 8.26895 19.5493 8.53672 19.7957C8.93838 20.1939 9.18722 20.5543 9.62713 20.9335C12.1523 23.2279 16.6097 24.3087 19.9766 22.5833C20.6654 22.2229 20.8184 22.0712 21.2967 21.5782C22.1001 20.7628 22.2722 20.0422 22.6167 19.0182Z" fill="#9B9B9B"/>
<path fill-rule="evenodd" clip-rule="evenodd" d="M64.7014 23.4168H68.3554L69.8666 16.4578C71.8753 16.2113 71.9327 17.5955 72.2387 19.0934L73.0422 23.4168H76.7536L75.8544 18.9986C75.644 17.9178 75.1465 17.0457 74.7449 16.6094C74.4962 16.363 74.2856 16.2492 73.9987 16.0217C74.5919 15.6613 75.0509 15.5096 75.5101 15.2252C76.2561 14.789 76.964 14.1823 77.6718 12.9498C78.5326 11.4517 78.9727 9.15725 78.1118 7.46954C77.2509 5.72494 75.8162 5.38367 73.2909 5.38367C70.9761 5.38367 68.6806 5.34576 66.3658 5.38367L65.811 8.22808H67.7814L64.7014 23.4168ZM70.4788 13.6133L71.5884 8.28496C73.1952 8.22808 75.8544 7.82994 74.6875 11.319C73.8457 13.8029 72.2578 13.6513 70.4788 13.6133Z" fill="#9B9B9B"/>
<path fill-rule="evenodd" clip-rule="evenodd" d="M99.0211 23.417H102.273L103.421 18.3732C104.818 18.2592 104.932 18.9799 105.238 20.459L105.832 23.436L109.198 23.3982L108.739 21.1226C108.242 18.9799 108.433 18.5817 107.17 17.2353L110.996 11.7173L107.515 11.7552C106.654 12.9119 105.87 14.3531 105.105 15.5477H104.014C103.957 14.5427 105.812 7.3939 106.08 5.40283H100.705L100.188 8.24724H102.139C101.833 10.6744 99.0594 22.1845 99.0211 23.417Z" fill="#9B9B9B"/>
<path fill-rule="evenodd" clip-rule="evenodd" d="M37.6319 18.7334H34.6093L34.2076 20.5349H31.759L34.9346 5.40283L29.0998 5.47867L28.4304 8.26619H30.5536L27.3015 23.417L36.6371 23.3791L37.6319 18.7334Z" fill="#9B9B9B"/>
<path fill-rule="evenodd" clip-rule="evenodd" d="M80.1396 23.7015C80.4265 23.8152 80.7518 23.8911 81.1917 23.948C84.1952 24.2513 85.7064 23.1515 86.6247 21.9569C87.4664 20.876 87.7342 20.0606 88.0787 18.7523C88.576 16.9698 88.8438 14.922 87.7151 13.3859C86.5099 11.7551 84.0613 11.2432 81.7464 12.1913C79.9292 12.9499 78.5899 14.4858 77.9205 16.5716C77.576 17.6525 77.3656 18.9039 77.4804 20.0985C77.6336 21.8052 78.4752 23.0757 80.1396 23.7015ZM81.1535 19.8331C80.9431 19.0935 81.0578 18.2783 81.3447 17.1974C81.6508 16.0406 82.5117 14.1066 83.9657 14.5995C85.1135 14.9408 85.1708 18.2972 83.9657 20.0417C83.0474 21.426 81.6316 21.6346 81.1535 19.8331Z" fill="#9B9B9B"/>
<path fill-rule="evenodd" clip-rule="evenodd" d="M39.5068 22.7534C41.4581 25.0857 45.2842 23.4928 46.9867 22.905L46.432 20.459C44.9206 20.9708 42.7016 22.0896 42.1086 19.8142C44.6146 20.0227 46.7954 19.2262 48.0389 17.0835C51.138 11.6982 43.4286 9.76405 40.1382 14.0874C38.9904 15.5856 38.4164 17.1785 38.3781 19.2642C38.3781 19.2452 38.206 21.1794 39.5068 22.7534ZM42.2043 17.5008C42.3955 16.2493 43.0076 14.827 44.1554 14.5995C45.0738 14.4099 45.4373 15.0737 45.2458 15.851C45.1693 16.1924 45.0354 16.5337 44.7294 16.837C44.1554 17.3871 43.2562 17.5387 42.2043 17.5008Z" fill="#9B9B9B"/>
<path fill-rule="evenodd" clip-rule="evenodd" d="M56.571 16.7043C57.0684 18.6385 59.8996 18.9039 60.2441 19.7952C60.8946 21.426 57.872 21.6346 56.131 20.2502L54.9641 22.6965C55.8633 23.8342 58.637 24.1375 60.3971 23.7773C62.5205 23.3411 63.7257 21.6346 63.8213 19.5487C63.8787 18.6006 63.6683 18.1075 62.8266 17.3491C62.0806 16.7043 61.2197 16.5147 60.531 16.0595C60.1675 15.8131 60.0337 15.7562 60.0719 15.3012C60.1293 14.4668 60.8179 14.5047 61.8318 14.5426L61.6214 15.7941L63.9937 15.7562L65.5431 11.0347L62.6353 11.0726L62.4823 11.7741C61.0284 11.6793 59.3449 11.6414 58.1971 12.5326C58.1971 12.5516 55.9589 14.353 56.571 16.7043Z" fill="#9B9B9B"/>
<path fill-rule="evenodd" clip-rule="evenodd" d="M90.6228 23.0187C90.9288 23.3031 91.388 23.5687 92.0766 23.7583C92.8418 24.0048 93.741 24.0427 94.6019 23.91C95.1566 23.8531 95.5584 23.7204 95.9218 23.6256C96.3811 23.5116 96.7636 23.341 97.2227 23.1704C97.4141 23.0756 97.6245 23.0187 97.8349 22.886L97.28 20.4589C96.2281 20.8001 92.4593 22.6964 92.861 18.373C93.1096 15.8888 93.8749 14.2392 96.668 14.5805L96.4576 15.7751L98.8106 15.7372L100.379 11.0156H97.5097L97.2992 11.8498C93.9896 11.5086 92.2105 12.4377 90.814 14.2961C89.6662 15.794 89.1496 17.9368 89.3028 20.1174C89.3793 21.2172 89.7427 22.2791 90.6228 23.0187Z" fill="#9B9B9B"/>
<path fill-rule="evenodd" clip-rule="evenodd" d="M49.0527 23.4168H52.2475L54.1223 14.5046L55.9206 14.5425L56.8197 11.774H54.7536L55.4613 8.26599H52.6111L51.5589 11.774H49.8562L49.3014 14.5046H50.7554L49.0527 23.4168Z" fill="#9B9B9B"/>
<path fill-rule="evenodd" clip-rule="evenodd" d="M16.7992 14.846C17.4113 13.5377 17.8514 11.6035 18.0044 10.4089C18.1574 9.25221 17.8131 8.75927 16.5888 8.5695C16.2443 8.51262 15.9 8.53158 15.594 8.77805C15.1348 9.11949 15.1922 9.72618 15.0009 10.7312C14.6949 12.817 14.0444 15.0548 14.9435 15.7752C15.9192 16.5527 16.474 15.6046 16.7992 14.846Z" fill="#9B9B9B"/>
<path fill-rule="evenodd" clip-rule="evenodd" d="M19.401 16.0595C20.3958 14.4288 21.6201 11.5844 21.0079 10.6363C20.4914 9.87792 19.0374 9.47959 18.5973 10.6932C18.253 11.6413 17.947 13.1205 17.6983 13.9357C17.4113 14.827 16.9905 16.0217 17.3539 16.6284C18.0044 17.7472 18.9609 16.7422 19.401 16.0595Z" fill="#9B9B9B"/>
<path fill-rule="evenodd" clip-rule="evenodd" d="M56.7239 10.1245H59.0388L60.703 5.40283H57.7188L56.7239 10.1245Z" fill="#9B9B9B"/>
</svg>
