<svg width="16" height="16" viewBox="0 0 16 16" fill="none" xmlns="http://www.w3.org/2000/svg">
<path d="M14.5713 14.2857C14.931 14.2857 15.2426 14.1669 15.5075 13.9325L10.9745 9.39923C10.8657 9.47711 10.7603 9.55284 10.6607 9.62485C10.3215 9.87479 10.0462 10.0698 9.83475 10.2096C9.62336 10.3497 9.34211 10.4924 8.99102 10.6382C8.6397 10.7841 8.31241 10.8569 8.00879 10.8569H7.9999H7.99101C7.68736 10.8569 7.36007 10.7842 7.00878 10.6382C6.65749 10.4924 6.37624 10.3497 6.16505 10.2096C5.95366 10.0698 5.67848 9.87482 5.33908 9.62485C5.24449 9.55551 5.1396 9.47943 5.02619 9.39801L0.492264 13.9325C0.757161 14.1669 1.069 14.2857 1.42863 14.2857H14.5713V14.2857Z" fill="#253238"/>
<path d="M0.901882 6.54465C0.562678 6.3185 0.261876 6.0595 0 5.76776V12.6647L3.99542 8.66928C3.19611 8.11125 2.16624 7.40385 0.901882 6.54465Z" fill="#253238"/>
<path d="M15.1072 6.54465C13.891 7.36778 12.8574 8.07639 12.0062 8.67088L16 12.6649V5.76776C15.7439 6.05363 15.4464 6.31246 15.1072 6.54465Z" fill="#253238"/>
<path d="M14.5713 1.71423H1.42866C0.970156 1.71423 0.617647 1.86906 0.370702 2.17841C0.123554 2.48789 0.000183105 2.87494 0.000183105 3.33911C0.000183105 3.71405 0.163903 4.1203 0.491197 4.55798C0.818491 4.99548 1.16676 5.33913 1.53583 5.5891C1.73815 5.73205 2.34829 6.15622 3.36626 6.86147C3.91577 7.24227 4.39366 7.57419 4.80432 7.86061C5.15436 8.1045 5.45624 8.31572 5.70548 8.491C5.73409 8.51107 5.77909 8.54326 5.83881 8.58596C5.90316 8.63218 5.98458 8.69083 6.08503 8.76336C6.27847 8.90326 6.43917 9.01635 6.56716 9.10274C6.69497 9.18916 6.84983 9.28569 7.0315 9.39288C7.21303 9.49993 7.38424 9.58042 7.54494 9.63396C7.70567 9.68747 7.85446 9.71431 7.99134 9.71431H8.00023H8.00912C8.14596 9.71431 8.29478 9.68747 8.45554 9.63396C8.61621 9.58042 8.78728 9.5001 8.96895 9.39288C9.15045 9.28569 9.3051 9.18896 9.43333 9.10274C9.56132 9.01635 9.72201 8.90329 9.91548 8.76336C10.0157 8.69083 10.0972 8.63215 10.1615 8.58611C10.2212 8.54323 10.2662 8.51125 10.295 8.491C10.4892 8.35589 10.7917 8.14555 11.1985 7.86308C11.9388 7.34877 13.0289 6.59178 14.4736 5.5891C14.9081 5.28562 15.2711 4.9194 15.5628 4.49096C15.854 4.06252 16 3.6131 16 3.14286C16 2.74997 15.8585 2.41379 15.576 2.13379C15.2931 1.85413 14.9582 1.71423 14.5713 1.71423Z" fill="#253238"/>
</svg>
